<svg height="275" width="365" xmlns="http://www.w3.org/2000/svg"><g transform="translate(-195.82871 -53.894133)"><path d="m381.05613 59.896151c-8.76358 21.48594-14.05542 35.559008-23.81251 56.406249 5.98233 6.34126 13.32499 13.69092 25.25001 22.03125-12.82058-5.27559-21.55832-10.53499-28.09376-16.03125-12.4872 26.05648-32.07985 63.13344-71.78125 134.46876 31.19835-18.01136 55.3982-29.10421 77.9375-33.34375-.96715-4.16178-1.5061-8.67823-1.46875-13.375l.03125-.96875c.49515-19.99155 10.89945-35.38759 23.21876-34.34375 12.31931 1.04382 21.90137 18.13345 21.40624 38.125-.09312 3.75972-.50934 7.36393-1.24999 10.71875 22.28963 4.36588 46.23183 15.42448 77 33.1875-6.06956-11.1745-11.51389-21.21901-16.6875-30.8125-8.14928-6.31625-16.63014-14.53818-33.96875-23.4375 11.91757 3.09669 20.47384 6.66278 27.125 10.65625-52.60161-97.93504-56.86798-110.95058-74.90625-153.281259z" fill="#1793d1" fill-rule="evenodd"/><text fill="#87cdde" font-family="DejaVu Sans Mono" font-size="6.106909" x="475.51663" y="242.00311"><tspan x="475.51663" y="242.00311">TM</tspan></text><g fill="#4d4d4d" fill-rule="evenodd" transform="matrix(.4787947 0 0 .4787947 65.3323 122.93044)"><path d="m339.96875 309.09375c-14.47141-.02388-26.4812 2.94367-31.125 4.5625l-4.78125 25.8125c-.01163.09509 23.79543-6.34855 34.28125-5.96875 17.36158.62381 18.95948 6.63541 18.65625 14.75.29595.47462-4.47933-7.33192-19.5-7.59375-18.94961-.32687-45.69284 6.70947-45.65625 35.3125-.51086 32.17412 24.03361 41.63882 40.75 41.8125 15.02821-.27364 22.0777-5.69136 25.9375-8.59375 5.07124-5.30236 10.87308-10.63447 16.40625-17.03125-5.23567 9.51278-9.77472 16.0898-14.5 21.125v4.25l22.84375-3.84375.15625-62.09375c-.23141-8.78839 5.04123-42.41827-43.46875-42.5zm-3.28125 54.0625c9.46889.12995 20.32788 4.79708 20.34375 16.03125.04902 10.21821-12.80005 15.71183-21.15625 15.625-8.35976-.08677-19.45093-6.56982-19.5-16.53125.16016-8.90444 10.45953-15.35418 20.3125-15.125z"/><path d="m398.50106 314.83145-.15505 102.82693 26.61213-5.12724.04486-58.30157c.00636-8.68089 12.40554-18.82451 27.9627-18.66287 3.30202-5.97408 9.5087-21.24219 11.02088-24.71514-34.75649-.08325-35.19897 9.98993-41.24398 14.94517-.06309-9.45285-.02134-15.12741-.02134-15.12741z"/><path d="m548.2688 328.33058c-.25696-.12068-13.87938-15.93419-41.26638-16.0589-25.65249-.42638-54.42578 9.51895-54.88631 52.5328.22457 37.81852 27.6402 52.59809 55.0314 52.88627 29.31292.30451 40.97654-18.32947 41.67615-18.79124-3.49762-3.0321-16.59792-16.0131-16.59792-16.0131s-8.18236 11.65102-24.05802 11.79913c-15.87942.1512-29.68245-12.27325-29.87805-29.60905-.20349-17.33595 12.68881-26.72821 29.99725-27.48687 14.98466-.00321 23.6297 9.67334 23.6297 9.67334z"/><path d="m581.8125 278.84375-25.125 5.90625.1875 133.9375 24.75-4.46875.28125-63.03125c.05291-6.60927 9.56127-16.75916 25.4375-16.4375 15.17973.15775 18.57236 10.11767 18.53125 11.375l.4375 72.96875 24.40625-4.3125.09375-77.375c.1607-7.44539-16.30833-23.16954-42.78125-23.28125-12.58087.02024-19.54815 2.86825-23.09375 4.96875-6.06656 4.68565-12.9998 9.17543-19.8125 14.90625 6.29809-8.09099 11.58551-13.68516 16.75-17.84375z"/></g><g fill="#1793d1" fill-rule="evenodd" stroke-width=".5" transform="matrix(.7088464 0 .01003098 .7088464 96.75298 -188.32526)"><path d="m400.67581 629.79609 7.68167-1.91575-.92851 91.20792-7.79574 1.32426z"/><path d="m421.10266 657.01757 6.75064-2.9867-.86808 65.39931-6.49779 1.33915zm-1.26059-23.58316 5.47167-4.41533 4.42261 4.99952-5.47558 4.53221z"/><path d="m440.44273 655.82614 7.67755-1.56201-.1573 13.6722c-.00675.58717 4.4194-15.27364 24.68502-14.92094 19.67986.10952 22.68401 15.34634 22.5291 18.76237l-.43759 48.0783-6.73044 1.45631.63316-47.489c.09742-1.38684-2.88144-13.11441-16.78906-13.15754-13.90509-.04037-23.68364 10.10048-23.75821 16.57937l-.48127 41.83477-7.80388 2.0313z"/><path d="m561.53301 720.20203-7.6776 1.56186.15737-13.67198c.00676-.58742-4.42201 15.27361-24.68504 14.92086-19.67983-.10944-22.68399-15.34626-22.52908-18.76229l.43757-48.07861 8.15674-1.64226-.54644 47.48988c-.01492 1.29682 1.36845 13.29979 15.27604 13.3426 13.90511.04045 23.76622-8.37359 24.01453-21.04416l.43105-37.46902 7.5978-1.93195z"/><path d="m577.45461 655.28678-5.42715 4.20017 20.19894 26.93328-22.39092 31.11622 5.63499 4.226 21.04365-28.8967 20.8779 29.58159 5.32727-4.20103-22.37578-31.62866 18.56963-25.5775-5.53193-4.73429-16.92109 23.66778z"/></g><text fill="#87cdde" font-family="DejaVu Sans Mono" font-size="6.336341" x="550.83258" y="319.34351"><tspan x="550.83258" y="319.34351">TM</tspan></text></g></svg>