<svg height="400" viewBox="0 0 400 400" width="400" xmlns="http://www.w3.org/2000/svg"><g transform="matrix(.65355666 0 0 .65355666 -24.616 -64.379739)"><path d="m474.6092 255.1181.00001 151.18111-130.92667 75.59055v-151.1811z"/><path d="m343.68252 330.70866v-151.1811l-130.92666 75.59054z"/><path d="m218.61226 233.26169c-13.54108 7.81795-21.85641 22.22052-21.85641 37.85641v119.18111c0 15.63589 8.31533 30.03846 21.85641 37.85641l103.21385 59.59055c13.54108 7.81794 30.17174 7.81794 43.71282 0l103.21386-59.59055c13.54108-7.81795 21.85641-22.22052 21.85641-37.85641v-119.18111c0-15.63589-8.31533-30.03846-21.85641-37.85641l-103.21386-59.59054c-13.54108-7.81794-30.17174-7.81794-43.71282 0zm130.92667-31.87772 103.21386 59.59054c3.60767 2.08289 5.85641 5.97781 5.85641 10.14359v119.18111c0 4.16578-2.24874 8.0607-5.85641 10.14359l-103.21386 59.59055c-3.60767 2.08289-8.10515 2.08289-11.71282 0l-103.21385-59.59055c-3.60767-2.08289-5.85641-5.97781-5.85641-10.14359v-119.18111c0-4.16578 2.24874-8.0607 5.85641-10.14359l103.21385-59.59054c3.60767-2.08289 8.10515-2.08289 11.71282 0z"/></g><g stroke-width="1.69387" transform="translate(-1108.5714 -122.85715)"><path d="m1224.9225 467.70215h7.4143v-14.48613h14.2635v-6.11294h-14.2635v-8.35606h15.8046v-6.11295h-23.2189z"/><path d="m1260.2816 432.63407h-7.2944v35.06808h7.2944z"/><path d="m1273.6033 468.19872c3.887 0 6.4041-1.69519 7.6883-4.14379h.2055v3.64722h6.9177v-17.73952c0-6.26704-5.3082-8.904-11.1643-8.904-6.3012 0-10.445 3.01366-11.4553 7.80813l6.7465.54794c.4966-1.74656 2.0548-3.03079 4.6746-3.03079 2.4828 0 3.9041 1.24999 3.9041 3.40749v.10274c0 1.69519-1.798 1.91779-6.3698 2.36299-5.2054.47944-9.88 2.226-9.88 8.09922 0 5.20541 3.7157 7.84237 8.7327 7.84237zm2.089-5.03419c-2.2431 0-3.8526-1.04451-3.8526-3.04791 0-2.05477 1.6951-3.06503 4.2636-3.42461 1.5924-.2226 4.1952-.59931 5.0684-1.1815v2.79107c0 2.75681-2.2773 4.86295-5.4794 4.86295z"/><path d="m1308.0721 441.40109h-4.9486v-6.30129h-7.2944v6.30129h-3.5959v5.47939h3.5959v13.69847c-.034 5.15404 3.476 7.70538 8.767 7.48278 1.8835-.0685 3.2191-.4452 3.9554-.68492l-1.1472-5.42802c-.3596.0685-1.1301.23973-1.8151.23973-1.4554 0-2.4657-.54794-2.4657-2.56847v-12.73957h4.9486z"/><path d="m1312.8151 477.56504h7.2944v-14.07517h.2226c1.0103 2.19175 3.2192 4.64036 7.4657 4.64036 5.9931 0 10.6677-4.7431 10.6677-13.54436 0-9.04099-4.8801-13.52724-10.6506-13.52724-4.4006 0-6.5068 2.61983-7.4828 4.76022h-.3253v-4.41776h-7.1917zm7.1403-23.01342c0-4.69172 1.9863-7.68826 5.5308-7.68826 3.6129 0 5.5307 3.13352 5.5307 7.68826 0 4.58899-1.952 7.77388-5.5307 7.77388-3.5103 0-5.5308-3.08215-5.5308-7.77388z"/><path d="m1350.8111 468.19872c3.887 0 6.4041-1.69519 7.6883-4.14379h.2055v3.64722h6.9177v-17.73952c0-6.26704-5.3082-8.904-11.1642-8.904-6.3013 0-10.4451 3.01366-11.4554 7.80813l6.7465.54794c.4966-1.74656 2.0548-3.03079 4.6746-3.03079 2.4829 0 3.9041 1.24999 3.9041 3.40749v.10274c0 1.69519-1.798 1.91779-6.3698 2.36299-5.2054.47944-9.88 2.226-9.88 8.09922 0 5.20541 3.7157 7.84237 8.7327 7.84237zm2.0891-5.03419c-2.2432 0-3.8527-1.04451-3.8527-3.04791 0-2.05477 1.6951-3.06503 4.2636-3.42461 1.5925-.2226 4.1952-.59931 5.0684-1.1815v2.79107c0 2.75681-2.2773 4.86295-5.4793 4.86295z"/><path d="m1371.2903 467.70215h7.2945v-8.35607l1.9691-2.24312 7.1746 10.59919h8.5444l-10.2567-14.91421 9.7601-11.38685h-8.3731l-8.4246 9.98276h-.3938v-18.74978h-7.2945z"/></g></svg>