<svg viewBox="0 0 340 220.3" xmlns="http://www.w3.org/2000/svg"><g fill="#73ba25" transform="translate(-232.86 -406.35)"><path clip-rule="evenodd" d="m523.71 442.05c-3.3113-.11926-6.4507 1.0506-8.8499 3.3008-2.3993 2.2502-3.8147 5.2984-3.9147 8.5992-.2297 6.8208 5.1108 12.559 11.916 12.81 3.3095.1 6.4647-1.0698 8.878-3.32 2.4098-2.2607 3.7953-5.3107 3.9006-8.5992.2297-6.819-5.109-12.549-11.93-12.791zm2.0205 13.512c-3.0307 0-5.4791-1.6398-5.4791-3.6498 0-2.0292 2.4484-3.6603 5.4791-3.6603 3.0306 0 5.486 1.6311 5.486 3.6603 0 2.0099-2.4571 3.6498-5.486 3.6498zm28.798 14.729c.0887-.0692.29521-.25105.2683-.41918-.68471-4.2787-7.0592-25.029-11.884-30.019-1.3294-1.3592-2.394-2.6992-4.5495-3.9602-17.454-10.171-58.863-16.309-60.803-16.59 0 0-.19473-.0406-.3297.0912-.1048.10237-.1246.29991-.1246.29991s-.1596 8.5799-.1841 9.5392c-4.2286-1.4206-34.972-11.351-63.791-12.351-24.44-.85939-60.033-4.0198-107.2 24.98l-1.3943.86815c-22.19 13.841-37.51 30.91-45.518 50.739-2.5116 6.2402-5.8895 20.32-2.5414 33.569 1.4417 5.7912 4.1304 11.611 7.7556 16.819 8.194 11.77 21.944 19.58 36.749 20.899 20.904 1.8696 36.733-7.5188 42.363-25.099 3.8708-12.13 0-29.928-14.839-39.008-12.07-7.3908-25.049-5.7106-32.578-.7296-6.5313 4.3303-10.23 11.06-10.165 18.451.1508 13.11 11.444 20.078 19.564 20.099 2.3589 0 4.7284-.41041 7.3995-1.2803.9506-.28939 1.845-.64893 2.8307-1.2593l.3087-.18065.1947-.12978-.065.0386c1.8503-1.261 2.964-3.3113 2.964-5.5106 0-.59981-.084-1.2084-.2561-1.8205-.9593-3.32-4.239-5.3282-7.638-4.7091l-.4595.10874-.6209.18942-.9015.31043c-1.8696.45951-3.2692.49985-3.5691.51038-.9506-.0614-5.6246-1.461-5.6246-6.5805v-.0702c0-1.8801.7542-3.199 1.1698-3.9199 1.454-2.28 5.4352-4.5179 10.814-4.0497 7.0593.61034 12.149 4.2303 15.52 11.06 3.1289 6.349 2.3098 14.159-2.1099 19.88-4.3899 5.6685-12.205 8.0783-22.598 6.9593-10.481-1.1593-19.34-7.1908-24.303-16.579-4.8565-9.1779-5.1213-20.059-.6858-28.418 10.609-20.029 30.649-19.82 41.637-17.921 16.26 2.8202 34.758 17.819 41.319 35.139 1.0593 2.7606 1.5995 4.9494 2.0713 6.9505l.7085 2.9903 18.37 8.9692c.39458.19266.52796.25778.6858.14034.18941-.14093.081-.52966.081-.52966-.114-.4104-.3806-.78924-.805-5.9298-.3491-4.5618-1.0594-17.051 5.2282-23.24 2.4414-2.4186 6.1613-4.5776 9.099-5.2686 12.04-2.9412 26.159-.912 39.507 14.539 6.9102 7.98 10.279 11.619 11.97 13.249 0 0 .38494.36349.5893.53142.22331.1835.36878.33789.6945.51914.55786.31042 22.954 10.621 22.954 10.621s.26534.13182.4612-.11049c.19362-.23953.01-.4788.01-.4788-.1491-.17013-14.199-18.328-11.698-33.279 1.9696-11.909 11.447-10.83 24.558-9.3498 4.2794.49984 9.1516 1.0593 14.196 1.1716 14.084.0895 29.254-2.5115 38.604-6.6015 6.049-2.629 9.9093-4.3794 12.328-6.5787.8699-.72084 1.3207-1.8907 1.7907-3.1499l.3297-.83133c.3911-1.0207.9664-3.171 1.219-4.3496.1017-.51914.2208-1.0274-.2087-1.3592-.39265-.30337-1.2944.24027-1.2944.24027-4.1058 2.4712-14.369 7.1505-23.965 7.3504-11.914.24028-36.054-12.061-38.555-13.36-1.6739-3.9857-3.3458-7.9724-5.0438-11.948 17.27 11.379 31.594 17.668 42.559 18.638 12.207 1.0874 21.723-5.5724 25.853-8.3433.54064-.35944 1.0799-.76184 1.5756-1.1486zm-48.992-16.369c.1753-4.7302 2.1554-9.1201 5.6141-12.34 3.4603-3.2306 7.9747-4.9003 12.708-4.7494 9.7602.34902 17.43 8.5886 17.095 18.338-.1841 4.7302-2.1642 9.1201-5.6141 12.33-3.4603 3.2499-7.9642 4.9196-12.719 4.76-9.7497-.35954-17.411-8.5799-17.084-18.338z" fill-rule="evenodd"/><path d="m376.84 556.36c-7.7836 0-12.065 6.5805-12.065 11.13v5.8403c0 6.6997 5.4738 10.851 10.55 10.851h17.819c2.2449 0 2.7149 1.4697 2.7149 2.7097v3.769c0 .39988-.081 4.0198-2.7149 4.0198h-24.303c-2.4151 0-4.1602 1.6802-4.1602 3.9795v1.0418c0 2.2905 1.7451 3.9602 4.1602 3.9602h25.624c6.698 0 11.02-4.66 11.02-11.879v-6.3016c0-6.7786-4.8705-9.8093-9.7058-9.8093h-17.533c-2.6395 0-3.8356-1.9801-3.8356-3.3797v-3.4796c0-2.1906 1.4644-3.4604 4.0251-3.4604h19.408c2.38 0 4.1707-1.71 4.1707-3.9707v-1.04c0-2.2695-1.8205-3.9813-4.2513-3.9813h-20.922z"/><path d="m449.7 556.36c-2.301 0-4.1548 1.8696-4.1548 4.1707v29.838c0 2.3905-1.9503 4.311-4.311 4.311h-13.545c-2.3694 0-4.3092-1.9205-4.3092-4.311v-29.838c0-2.3011-1.8696-4.1707-4.1689-4.1707h-1.3101c-2.3344 0-4.1707 1.8416-4.1707 4.1707v30.968c0 7.2101 5.6737 12.44 13.489 12.44h14.485c7.8047 0 13.475-5.2282 13.475-12.44v-30.968c0-2.3291-1.8293-4.1707-4.1602-4.1707h-1.3189z"/><path d="m475.63 556.36c-7.7801 0-12.074 6.5805-12.074 11.13v5.8403c0 6.6997 5.4843 10.851 10.564 10.851h17.814c2.2485 0 2.7203 1.4697 2.7203 2.7097v3.769c0 .39988-.081 4.0198-2.7203 4.0198h-24.314c-2.4045 0-4.1601 1.6802-4.1601 3.9795v1.0418c0 2.2905 1.7556 3.9602 4.1601 3.9602h25.633c6.6998 0 11.041-4.66 11.041-11.879v-6.3016c0-6.7786-4.8845-9.8093-9.7199-9.8093h-17.533c-2.6466 0-3.8392-1.9801-3.8392-3.3797v-3.4796c0-2.1906 1.4645-3.4604 4.0251-3.4604h19.419c2.3747 0 4.1584-1.71 4.1584-3.9707v-1.04c0-2.2695-1.8188-3.9813-4.2601-3.9813h-20.913z"/><path d="m512.55 560.34v39.358c0 2.259 1.7047 3.9602 3.9637 3.9602h31.364c2.4151 0 4.1602-1.6697 4.1602-3.9602v-1.0418c0-2.2993-1.7451-3.9795-4.1602-3.9795h-25.687v-10.02h18.822c2.4098 0 4.1602-1.6907 4.1602-3.9813v-1.04c0-2.3011-1.7504-3.9707-4.1602-3.9707h-18.822v-10.32h24.382c2.4063 0 4.1601-1.6591 4.1601-3.9707v-1.04c0-2.3011-1.7538-3.9815-4.1601-3.9813l-29.968.003c-2.3064 0-4.0549 1.7148-4.0549 3.9843z"/><g transform="matrix(1.7539 0 0 1.7539 -611.6 -134.13)"><g stroke-width="0"><path d="m491.25 404.37c-2.241 0-4.065 1.744-4.065 3.894v8.461c0 2.184 1.765 3.963 3.929 3.963h5.473c2.164 0 3.929-1.779 3.929-3.963v-8.461c0-2.149-1.825-3.894-4.065-3.894zm-1.184 12.019v-7.726c0-.906.744-1.647 1.654-1.647h4.264c.89 0 1.648.758 1.648 1.647v7.726c0 .912-.738 1.653-1.648 1.653h-4.296c-.912 0-1.622-.725-1.622-1.653z"/><path d="m512.91 404.27c-1.578 0-2.768.564-3.723 1.026-.582.279-1.086.52-1.477.52-.177 0-.328-.08-.408-.211l-.364-.696c-.091-.183-.456-.541-.907-.541h-.541c-.52 0-.936.467-.936 1.037v21.461c0 .673.531 1.203 1.203 1.203h.468c.667 0 1.209-.536 1.209-1.203v-7.121c0-.211.137-.439.276-.439.391 0 .895.229 1.477.496.955.439 2.145.98 3.723.98h.505c2.794 0 4.532-1.597 4.532-4.162v-8.192c0-2.526-1.775-4.157-4.532-4.157h-.505zm-5.475 11.952v-7.39c0-1.021.798-1.818 1.818-1.818h3.997c1.021 0 1.818.798 1.818 1.818v7.39c0 1.003-.818 1.818-1.818 1.818h-3.997c-1.001 0-1.818-.815-1.818-1.818z"/><path d="m521.98 408.26v8.398c0 2.178 1.768 4.025 3.854 4.025h5.647c.698 0 1.203-.484 1.203-1.141v-.37c0-.661-.505-1.135-1.203-1.135h-4.639c-1.3 0-1.986-.639-1.986-1.854v-2.457h8.369c1.346 0 2.142-.821 2.142-2.212v-3.256c0-2.149-1.822-3.8944-4.054-3.894l-5.273.001c-2.2401.002-4.06 1.745-4.06 3.895zm2.877.371c0-.907.713-1.619 1.621-1.619h4.396c.906 0 1.613.712 1.613 1.619v2.622h-7.631c.001-.342.001-2.622.001-2.622z"/><path d="m547 404.27c-1.573 0-2.76.564-3.718 1.021-.596.28-1.105.525-1.521.525-.183 0-.257-.023-.399-.269l-.331-.604c-.19-.382-.513-.575-.949-.575h-.465c-.562 0-.972.438-.972 1.037v14.077c0 .667.527 1.203 1.206 1.203h.465c.667 0 1.211-.542 1.211-1.203v-10.65c0-.998.815-1.818 1.813-1.818h3.999c1.001 0 1.816.82 1.816 1.818v10.65c0 .667.53 1.203 1.203 1.203h.47c.667 0 1.209-.542 1.209-1.203v-11.055c0-2.526-1.776-4.157-4.535-4.157z"/></g><path d="m667.46 415.23c1.218 0 2.188.99 2.188 2.229 0 1.257-.971 2.237-2.198 2.237-1.218 0-2.208-.98-2.208-2.237 0-1.238.99-2.229 2.208-2.229zm-.01.346c-.98 0-1.782.842-1.782 1.882 0 1.06.802 1.891 1.792 1.891.99.011 1.782-.831 1.782-1.881s-.792-1.892-1.782-1.892zm-.416 3.179h-.396v-2.485c.208-.03.406-.06.703-.06.377 0 .624.079.772.188.149.108.229.276.229.515 0 .326-.218.524-.485.604v.021c.218.039.366.237.416.604.06.387.118.535.158.614h-.416c-.06-.079-.119-.307-.168-.634-.06-.316-.218-.436-.535-.436h-.277v1.069zm0-1.377h.287c.327 0 .604-.118.604-.426 0-.218-.158-.436-.604-.436-.129 0-.218.01-.287.021z" fill="#73ba25"/></g></g></svg>