<svg viewBox="0 0 767.40668 738.31421" xmlns="http://www.w3.org/2000/svg"><g fill="#e9500e"><circle cx="109.02696" cy="348.09412" r="109.02696"/><circle cx="563.08369" cy="109.02698" r="109.02698"/><path d="m492.48194 1336.66577a265.52505 265.52505 0 0 1 -181.0712-138.09814 156.94784 156.94784 0 0 1 -93.21911 11.45825 354.93524 354.93524 0 0 0 255.53723 214.16455 359.20777 359.20777 0 0 0 77.41949 7.967 156.00313 156.00313 0 0 1 -31.92236-91.15466c-8.97977-.99752-17.94864-2.45477-26.74405-4.337z" transform="translate(-137.56155 -707.97998)"/><circle cx="538.52046" cy="629.28723" r="109.02698"/><g transform="translate(-137.56155 -707.97998)"><path d="m827.798 1297.22095a356.70056 356.70056 0 0 0 17.87483-418.51895 157.14441 157.14441 0 0 1 -61.30975 71.8031 267.293 267.293 0 0 1 -8.73688 265.4884 156.34677 156.34677 0 0 1 52.1718 81.22745z"/><path d="m238.17644 899.71906q4.1505-.22779 8.30533-.22553a157.34626 157.34626 0 0 1 82.68239 23.54547 265.90653 265.90653 0 0 1 214.10822-114.50934 158.0877 158.0877 0 0 1 33.076-88.42022c-137.10289-10.85767-270.32417 59.89156-338.17194 179.60962z"/></g></g></svg>