<svg height="48" width="48" xmlns="http://www.w3.org/2000/svg" xmlns:xlink="http://www.w3.org/1999/xlink"><radialGradient id="a" cx="5" cy="41.5" gradientTransform="matrix(.5938225 0 0 1.5366531 41.140892 -103.93618)" gradientUnits="userSpaceOnUse" r="5" xlink:href="#c"/><linearGradient id="b" gradientTransform="matrix(1.7570316 0 0 1.3969574 -17.394014 -16.411698)" gradientUnits="userSpaceOnUse" x1="17.554192" x2="17.554192" y1="46.000275" y2="34.999718"><stop offset="0" stop-opacity="0"/><stop offset=".5"/><stop offset="1" stop-opacity="0"/></linearGradient><linearGradient id="c"><stop offset="0"/><stop offset="1" stop-opacity="0"/></linearGradient><radialGradient id="d" cx="5" cy="41.5" gradientTransform="matrix(.5938225 0 0 1.5366531 -6.659474 -103.93618)" gradientUnits="userSpaceOnUse" r="5" xlink:href="#c"/><linearGradient id="e" gradientUnits="userSpaceOnUse" x1="15.464298" x2="15.464298" y1="7.975685" y2="45.04248"><stop offset="0" stop-color="#c9af8b"/><stop offset=".23942046" stop-color="#ad8757"/><stop offset=".27582464" stop-color="#c2a57f"/><stop offset="1" stop-color="#9d7d53"/></linearGradient><linearGradient id="f" gradientTransform="matrix(1.2822251 0 0 1.5572619 -6.070192 -15.290756)" gradientUnits="userSpaceOnUse" x1="24.822832" x2="24.996943" y1="15.377745" y2="37.27668"><stop offset="0" stop-color="#dac197"/><stop offset=".23942046" stop-color="#c1a581"/><stop offset=".27582464" stop-color="#dbc298"/><stop offset="1" stop-color="#a68b60"/></linearGradient><linearGradient id="g" gradientTransform="matrix(1.2822251 0 0 1.1746872 -6.070192 -5.303168)" gradientUnits="userSpaceOnUse" x1="23.451576" x2="43.00663" y1="30.554907" y2="45.934479"><stop offset="0" stop-color="#fff" stop-opacity="0"/><stop offset="1" stop-color="#fff" stop-opacity="0"/></linearGradient><linearGradient id="h" gradientUnits="userSpaceOnUse" x1="26" x2="26" y1="22" y2="8"><stop offset="0" stop-color="#fff"/><stop offset=".3021296" stop-color="#fff"/><stop offset=".34361121" stop-color="#fff" stop-opacity=".690196"/><stop offset="1" stop-color="#fff" stop-opacity="0"/></linearGradient><linearGradient id="i" gradientUnits="userSpaceOnUse" spreadMethod="reflect" x1="44.994774" x2="3.005225" y1="17.5" y2="17.5"><stop offset="0" stop-color="#fff" stop-opacity="0"/><stop offset=".245" stop-color="#fff"/><stop offset=".77350003" stop-color="#fff"/><stop offset="1" stop-color="#fff" stop-opacity="0"/></linearGradient><g opacity=".4" transform="matrix(.9926623 0 0 .9761474 .27519 1.292963)"><path d="m-3.690363-47.848343h2.960195v15.366531h-2.960195z" fill="url(#d)" transform="scale(-1)"/><path d="m3.690363 32.481812h40.41172v15.366531h-40.41172z" fill="url(#b)"/><path d="m44.110001-47.848343h2.960195v15.366531h-2.960195z" fill="url(#a)" transform="scale(1 -1)"/></g><path d="m9.010725 8.5h29.497723c1.721985 0 2.496922-.2865505 2.991552 1l3.001734 8v25.673912c0 1.553304.10293 1.315976-1.619063 1.315976h-37.7653422c-1.7219924 0-1.6190635.237328-1.6190635-1.315976l-0-25.673912 3.0017347-8c.4808316-1.2605622.7887325-1 2.510725-1z" display="block" fill="url(#f)" stroke="url(#e)" stroke-linecap="round" stroke-width=".994201"/><path d="m9.948194 9.5129459h27.652872c1.614293 0 2.61338.5565361 3.289521 2.0860281l2.32894 6.419721v23.144557c0 1.460676-.818759 2.196085-2.433056 2.196085h-33.7332031c-1.6142934 0-2.2727761-.808827-2.2727761-2.269504v-23.071138l2.2538109-6.55736c.4507622-1.185392 1.2995941-1.9483891 2.9138913-1.9483891z" display="block" fill="none" opacity=".505495" stroke="url(#g)" stroke-width=".742115"/><path d="m22 8h4v14c-.393729 0-.787458 0-1.181187 0-.403125 0-.80625 0-1.209375 0-.324529 0-.649057 0-.973585 0-.211951 0-.423902 0-.635853 0 0-4.666667 0-9.333333 0-14z" fill="url(#h)" opacity=".4"/><path d="m8.8577805 41h1.5960005c0-1.732 0-3.463999 0-5.195999.350387-.08546 1.120394.248701.96-.347539-.102171-.33549.226561-1.101884-.208523-1.104461-.485647.0498-.932764.06107-.751477-.556062 0-.554647 0-1.109293 0-1.663939-.5320001 0-1.0640003 0-1.5960005 0v2.220001c-.4271961-.005-.9818294-.137459-.7799998.486555.085799.351863-.2490168 1.124339.3475392.965445.6265813-.204397.3964847.447885.4324606.834094zm10.1013755-6.647999c-.488 0-.976 0-1.464001 0 .0024.555388.107596 1.227788-.437249.416063-1.636804-1.296088-4.374285-.300099-4.92452 1.689976-.661604 1.81115.300763 4.17561 2.285367 4.595045 1.094162.292268 2.36525.0092 3.076403-.917085.04748.379533-.208965 1.062996.417046.864.308688-.109805 1.075603.238618 1.046954-.208523 0-2.146492 0-4.292984 0-6.439476zm-3.468 1.307999c1.580814-.09128 2.457037 1.889634 1.6725 3.144-.780128 1.464019-3.38279 1.034012-3.57968-.649758-.2612-1.205372.595891-2.550989 1.90718-2.494242zm4.657875 5.34h1.596c.02695-1.40671-.05762-2.820653.04952-4.222235-.03929-1.150281 1.695641-.622862 1.378482-1.671335.04606-.582734.107656-1.301403-.765469-.817407-.801504.592003-.68196.734239-.933546.06298-.441662 0-.883324 0-1.324985 0v6.647999zm4.059749 0h1.596001c0-.512 0-1.024 0-1.535999-.532 0-1.064 0-1.596001 0zm8.295565-6.647999c-.003.513942.117021 1.189699-.411938.400875-1.628193-1.253571-4.301621-.305806-4.845656 1.666025-.659185 1.848746.330662 4.308171 2.388984 4.669669 1.042827.237804 2.216921-.0832 2.868608-.96457.169849 1.428755-1.238328 2.555123-2.59132 2.036038-.634102-.357712-1.131566-.786701-1.909789-.620038-.627191-.06916-1.188855-.02657-.462605.689528 1.391779 1.957394 5.010526 1.964288 6.118152-.290715.591171-1.493473.298261-3.134065.369562-4.701095 0-.961906 0-1.923811 0-2.885717-.507999 0-1.015999 0-1.523998 0zm-1.992001 1.307999c1.457805-.09191 2.302931 1.617593 1.784062 2.857499-.50064 1.638565-3.249057 1.530402-3.556995-.183606-.348044-1.205308.365878-2.744812 1.772932-2.673893zm4.345875 5.34h5.063999c0-.476 0-.952001 0-1.428001-1.051999 0-2.103998 0-3.155998 0 .975999-1.264 1.951998-2.528 2.927998-3.792 0-.475999 0-.951999 0-1.427998-1.5 0-3 0-4.5 0v1.427998h2.591999c-.975999 1.264-1.951999 2.528-2.927998 3.792z" opacity=".4"/><path d="m3.5052248 17.5h40.9895502" fill="none" opacity=".4" stroke="url(#i)" stroke-linecap="square"/></svg>