<svg enable-background="new 0 0 24 24" viewBox="0 0 24 24" xmlns="http://www.w3.org/2000/svg"><path d="m17 20h-14.5c-1.378 0-2.5-1.122-2.5-2.5v-15c0-1.378 1.122-2.5 2.5-2.5h8c.214 0 .404.136.473.338l6.5 19c.052.152.027.321-.066.452-.094.132-.245.21-.407.21zm-14.5-19c-.827 0-1.5.673-1.5 1.5v15c0 .827.673 1.5 1.5 1.5h13.8l-6.157-18z"/><path d="m21.5 24h-8c-.208 0-.395-.129-.468-.324l-1.5-4c-.097-.259.034-.547.292-.644.259-.096.547.034.644.292l1.379 3.676h7.653c.827 0 1.5-.673 1.5-1.5v-15c0-.827-.673-1.5-1.5-1.5h-9.5c-.276 0-.5-.224-.5-.5s.224-.5.5-.5h9.5c1.378 0 2.5 1.122 2.5 2.5v15c0 1.378-1.122 2.5-2.5 2.5z"/><path d="m13.5 24c-.117 0-.234-.041-.329-.124-.208-.182-.229-.498-.047-.706l3.5-4c.182-.209.498-.229.706-.047s.229.498.047.706l-3.5 4c-.1.113-.238.171-.377.171z"/><path d="m9.5 14c-.206 0-.398-.127-.471-.332l-2.029-5.681-2.029 5.681c-.093.26-.38.396-.639.303-.26-.093-.396-.379-.303-.639l2.5-7c.142-.398.8-.398.941 0l2.5 7c.093.26-.042.546-.303.639-.054.02-.111.029-.167.029z"/><path d="m8 11h-2c-.276 0-.5-.224-.5-.5s.224-.5.5-.5h2c.276 0 .5.224.5.5s-.224.5-.5.5z"/><path d="m21.5 11h-7c-.276 0-.5-.224-.5-.5s.224-.5.5-.5h7c.276 0 .5.224.5.5s-.224.5-.5.5z"/><path d="m17.5 11c-.276 0-.5-.224-.5-.5v-1c0-.276.224-.5.5-.5s.5.224.5.5v1c0 .276-.224.5-.5.5z"/><path d="m16 17c-.157 0-.311-.073-.408-.21-.16-.225-.107-.537.118-.697 2.189-1.555 3.79-4.727 3.79-5.592 0-.276.224-.5.5-.5s.5.224.5.5c0 1.318-1.927 4.785-4.21 6.408-.088.061-.189.091-.29.091z"/><path d="m20 18c-.121 0-.242-.043-.337-.131-.363-.332-3.558-3.283-4.126-4.681-.104-.256.02-.547.275-.651.253-.103.547.019.651.275.409 1.007 2.936 3.459 3.875 4.319.204.187.217.502.031.707-.099.107-.234.162-.369.162z"/></svg>