<svg height="283.464567pt" viewBox="0 0 283.464567 283.464567" width="283.464567pt" xmlns="http://www.w3.org/2000/svg"><g stroke="#000" stroke-miterlimit="10"><g fill="none" stroke-width="30" transform="scale(.035)"><path d="m2174 2967 5-11 4-10 6-11 6-12 7-12 8-13 9-12 8-13 9-12 10-13 8-9 8-10 8-11 10-11 9-12 10-12 10-13 10-14 10-13 9-13 9-12 8-13 7-12 7-12 5-12 6-12 5-13 5-13 4-14 5-14 4-15 3-15 4-15 4-15 3-15 3-15 3-15 4-14 3-15 4-16 5-17 4-17 5-18 4-18 5-18 4-18 5-18 4-16 3-16 3-15 3-13 2-13 2-16 2-16v-44l-2-13-1-12-2-12-2-11-2-10-2-9-2-9-2-10-2-11-2-12-3-12-2-13-3-14-2-13-3-14-3-15-2-15-3-13-3-15-3-15-2-16-4-18-6-36-3-18-3-18-2-18-3-17-2-16-2-15-1-14-2-16-1-15-1-16-1-15v-16l1-15 1-15 2-28 2-13 3-13 3-13 3-12 3-14 4-13 4-15 5-14 5-14 4-14 5-13 4-12 4-11 4-10 3-9 3-9 6-16 4-9 4-8 6-9 6-10 7-10 9-11 10-13 8-9 8-10 9-11 10-12 12-13 12-15 13-14 14-16 14-16 15-16 15-15 14-16 15-15 14-15 54-54 14-12 13-13 14-12 15-13 15-13 15-13 15-13 15-13 15-12 15-13 15-11 15-11 14-11 13-10 13-10 14-9 14-11 16-10 15-11 16-10 16-11 16-10 17-11 16-10 17-10 15-9 16-9 15-9 14-8 13-7 13-7 12-6 15-9 16-7 15-8 16-7 15-6 15-6 14-5 14-4 12-3 12-2 11-1h10l9 1 9 1 10 3 8 3 9 4 7 4 7 5 5 6 5 6 3 5 2 12-1 6-2 7-5 8-6 8-7 9-8 9-10 9-9 9-10 8-9 10-9 7-8 9-9 9-10 10-10 10-10 11-10 11-10 11-10 11-9 11-9 10-9 11-9 10-9 11-9 12-9 12-10 12-9 12-9 12-9 12-8 11-8 10-7 10-6 9-8 11-7 10-7 10-6 10-7 10-5 10-5 9-5 9-3 8-3 8-4 10-3 11-2 11-2 13-1 12-1 12-1 12v23l1 13v13l2 14 1 13 2 13 2 11 3 11 3 9 4 10 4 8 5 9 6 7 6 6 7 5 7 4 7 2 9 2 10 1 11-1 12-2 13-2 13-4 14-5 10-4 10-4 12-5 12-5 13-6 14-6 15-7 14-6 15-6 15-6 14-6 15-5 12-5 13-5 14-4 15-5 15-4 16-5 17-4 16-4 17-4 17-3 16-4 16-3 16-2 15-2 16-3 16-2 17-1 17-2 19-2 57-3h20l19-1h19l18 1h18l17 1h15l16 1 17 1 17 2 18 1 18 3 20 2 20 3 20 3 63 12 42 10 21 6 21 6 36 10 19 6 19 6 42 14 21 7 22 8 22 9 22 8 44 18 21 8 21 9 19 9 19 8 18 9 17 8 16 8 15 8 20 11 20 12 18 12 18 12 17 12 17 12 15 13 14 12 13 11 12 11 11 10 9 10 9 9 8 8 10 11 10 11 10 10 10 9 10 9 9 8 10 7 9 5 9 4 10 4 8 2 9 1 11 1h11l12-1 13-2 14-2 14-3 15-4 15-4 15-5 15-6 14-5 15-6 15-7 16-7 17-8 17-9 16-8 17-9 16-9 15-9 14-8 12-8 11-8 10-7 10-8 9-8 8-9 6-8 6-9 8-20 2-11 2-11 1-11 1-12v-12l1-12v-13l-1-14v-15l-1-17-1-17-1-18-2-18-2-19-6-36-4-17-4-17-4-16-5-16-6-16-7-17-7-16-7-17-8-17-9-16-8-17-9-15-8-14-7-14-8-12-6-12-6-10-8-14-7-14-7-12-5-12-5-12-3-10-2-9-1-9 1-7 1-6 3-6 4-5 6-6 6-5 8-4 9-4 9-3 10-3 10-1 10-1 11-1h11l13 1 13 2 14 3 14 4 14 4 13 5 14 6 12 6 9 5 10 5 9 7 11 7 10 8 11 9 12 9 12 11 12 11 12 12 12 12 12 12 12 14 12 14 10 11 10 12 11 13 11 13 12 15 12 15 12 16 13 16 12 17 13 17 12 17 12 17 11 17 11 16 10 16 9 15 10 15 8 15 9 16 9 16 8 16 8 17 8 17 7 17 7 18 7 17 6 17 6 17 6 17 5 16 4 16 5 15 4 14 3 15 4 14 3 15 4 15 3 15 3 16 4 17 2 17 3 17 2 17 2 17 2 16 1 17 1 15v31l-1 15-1 15-1 15-2 15-2 16-3 17-4 18-4 17-5 19-6 18-6 18-7 19-7 18-8 18-16 34-9 18-9 15-9 16-10 17-10 17-11 18-12 18-13 19-14 18-13 19-15 19-14 19-15 18-14 18-15 17-14 16-15 16-14 15-14 15-14 14-15 14-15 13-15 14-16 14-17 14-16 14-17 13-17 13-16 13-16 13-16 11-15 12-15 10-14 10-13 9-12 9-12 9-17 12-17 11-16 12-15 10-15 11-14 9-13 9-11 8-10 6-8 6-7 4-5 3-4 2-6 4-2 1-1 2-1 1-1 3v6l1 5v5l1 6 1 8v9l1 9v67l-1 18v18l-1 20-2 19-1 20-2 19-1 20-2 19-3 18-2 19-3 18-3 19-3 19-4 19-4 20-5 20-5 20-6 21-5 20-6 20-7 19-6 19-6 18-7 17-7 16-6 16-8 16-7 15-8 16-9 16-9 17-10 16-10 17-11 17-11 17-11 16-12 16-11 15-12 15-12 15-12 14-11 14-13 14-13 14-13 14-14 15-15 15-14 15-16 15-15 16-15 15-14 15-40 40-11 12-11 11-9 11-12 13-11 13-11 13-9 13-9 13-8 12-7 12-6 11-5 11-8 20-3 9-4 11-3 11-2 12-3 12-2 13-2 13-1 12v46l1 12 2 12 2 13 3 13 3 14 3 13 4 12 4 11 5 12 5 11 5 11 7 12 6 13 8 13 7 12 7 13 7 12 7 11 6 11 6 12 6 11 6 13 6 13 6 14 6 14 5 14 5 14 5 14 4 14 3 10 3 11 3 11 3 12 2 13 3 13 3 15 3 14 2 16 2 15 2 16 2 15 2 16 2 17 1 14 1 16 1 16 1 17 1 18 1 18 1 19v19l1 19v37l1 17v16l-1 16v29l-1 17v17l-1 17-2 16-1 16-2 16-2 15-3 13-2 13-3 12-3 11-2 11-4 12-5 13-4 13-5 13-5 14-5 13-5 13-4 12-3 12-3 11-2 9-1 9-1 10-1 11v12l1 12 2 13 2 14 2 15 4 15 4 16 4 17 4 13 4 15 5 15 5 17 6 18 7 19 7 19 7 21 8 21 8 20 9 21 8 21 9 19 9 20 9 19 9 18 8 16 8 17 9 16 9 17 10 18 11 17 11 18 11 17 11 18 12 17 13 17 12 17 12 16 12 15 13 15 12 14 12 14 12 13 26 26 14 13 14 12 15 13 15 14 16 13 17 13 17 13 17 12 18 13 17 12 17 11 17 11 17 10 17 11 16 9 16 10 17 9 17 9 17 9 18 9 19 10 19 9 20 9 21 10 21 9 42 18 21 8 21 8 20 8 20 7 40 14 19 6 36 12 19 5 19 6 20 5 21 6 21 5 22 6 22 6 23 5 22 6 46 10 22 6 23 5 21 4 22 5 21 5 21 4 21 5 21 4 21 5 22 4 22 5 23 5 23 5 24 5 25 5 24 5 24 5 25 5 24 5 46 10 22 5 21 5 20 4 20 5 19 4 18 4 22 5 21 5 22 6 22 5 21 5 22 6 21 5 21 6 20 5 19 6 19 5 17 5 17 5 15 5 15 5 14 4 32 10 15 6 16 5 16 6 16 6 16 7 15 6 15 6 15 7 13 6 13 7 13 6 12 7 12 6 12 8 13 7 12 8 13 9 13 9 13 9 12 10 12 10 11 9 10 10 10 9 9 9 8 9 9 11 8 11 8 12 8 12 7 13 7 13 6 13 5 13 5 13 3 11 4 12 3 11 2 13 2 13 2 14 1 15-1 14-1 15-3 14-4 14-5 13-6 12-6 11-7 10-8 12-9 11-10 12-11 12-12 11-12 11-11 10-12 10-11 9-11 8-9 7-10 7-10 6-11 7-11 6-13 6-13 7-13 6-15 5-15 6-15 5-16 5-17 5-17 5-16 4-18 5-18 4-20 5-20 4-22 5-22 4-22 5-21 4-22 5-20 4-19 3-18 4-16 3-15 3-13 2-16 3-14 3-12 2-10 3-9 2-8 2-5 3-4 2-3 3-2 3v6l1 8 2 11 3 12 3 12 2 11v9l-2 4-2 3-3 4-6 2-7 2-9 2-11 2-14 1h-15l-17 1h-10l-12 1h-41l-17 1h-36l-20 1h-20l-21 1h-43l-22 1h-22l-23 1h-22l-22 1-21 1h-22l-22 1-23 1h-24l-24 1-26 1-25 1-27 1-78 3-50 2-46 2-22 1-21 1-20 1-19 1-46 2-22 2-21 1-22 1-21 1-20 2-19 1-18 1-18 1-16 1h-14l-13 1h-12l-11 1h-37l-11-1-10-1-9-1-7-2-4-2-4-2-1-2-1-3v-2l2-3 3-4 5-4 7-6 9-6 12-8 15-9 17-11 20-12 23-13 26-14 15-9 17-9 18-10 19-11 20-11 22-12 23-12 23-13 25-14 25-13 26-15 25-14 26-14 25-14 25-13 25-14 23-13 23-12 21-12 21-11 19-11 19-10 24-14 24-13 22-13 21-12 21-12 20-12 19-11 17-10 17-10 15-9 14-9 13-8 11-7 11-7 9-6 9-5 12-9 12-8 12-8 10-8 10-6 10-6 8-4 7-3 6-2h11l5 1 5 3 5 4 5 4 15 18 4 6 5 7 5 8 6 9 6 10 6 10 6 10 6 11 5 9 5 10 4 9 4 10 5 10 4 10 4 10 4 9 4 8 3 8 3 6 4 6 4 5 5 5 6 5 7 5 7 3 9 3 9 2 11 1h20l12-1 14-1 14-2 15-2 16-2 16-3 15-3 15-4 14-3 13-3 14-4 13-4 13-4 14-4 14-5 13-5 14-5 12-5 13-5 11-5 11-5 11-5 12-7 12-6 13-8 12-7 12-8 12-9 10-8 9-8 7-7 6-7 4-6 3-6 3-7 2-7 1-6v-8l-1-7-2-7-2-7-3-7-4-7-10-14-6-8-7-8-9-8-9-9-10-9-11-9-12-8-11-9-12-8-13-7-12-7-20-10-11-5-11-5-13-6-14-5-15-5-16-5-16-5-36-10-19-4-19-5-20-4-20-4-21-4-18-3-19-3-20-4-21-3-23-3-23-4-24-3-25-4-26-4-27-3-27-4-26-4-27-3-26-4-26-3-25-4-24-3-24-4-23-3-22-3-23-4-22-3-44-8-23-3-23-4-23-4-23-4-23-5-22-4-23-4-22-4-21-4-21-5-20-4-19-4-18-3-17-4-17-4-17-3-20-5-21-5-20-4-20-5-21-5-21-6-42-10-21-6-20-5-19-5-19-6-18-5-17-5-17-4-32-10-17-5-16-5-17-6-18-5-17-6-18-6-17-6-18-6-17-6-16-5-16-6-15-5-14-5-14-5-13-5-14-5-15-6-14-5-15-6-15-6-15-6-14-6-15-6-13-6-14-6-12-6-12-6-11-6-11-6-13-8-13-7-13-8-26-18-14-9-13-9-13-9-12-9-12-8-11-8-11-7-10-8-11-7-11-8-11-8-12-8-11-8-12-9-11-8-10-8-11-8-9-8-10-8-11-10-11-10-12-11-12-11-11-12-12-10-11-10-10-8-9-7-8-5-7-4-6-3-8-1-9-1-10 2-12 2-15 4-17 5-19 7-21 9-24 9-27 11-15 6-16 7-17 7-19 7-19 7-21 8-22 8-24 8-24 8-26 8-26 8-27 8-27 7-28 7-28 6-29 5-28 5-28 4-27 4-27 2-27 2h-53l-26-1-26-3-26-3-26-4-26-6-27-6-27-7-27-8-27-9-28-10-27-10-27-11-52-22-25-12-24-12-23-11-21-12-21-11-20-11-18-11-17-10-15-9-15-9-13-9-21-13-19-13-16-11-15-11-13-10-11-10-9-9-9-8-7-8-6-8-5-8-5-7-10-16-5-9-6-10-7-11-7-12-8-12-8-13-9-14-9-14-8-14-8-14-8-13-8-13-7-12-6-11-8-14-7-13-6-13-7-14-6-14-5-13-6-14-4-13-4-12-4-12-3-12-2-11-2-11-2-12-2-12-1-13-1-13-1-13-1-13v-37l1-11v-10l1-13 2-13 1-12 2-14 2-13 3-13 3-12 3-11 3-11 3-10 5-13 5-12 5-13 6-13 6-12 5-11 5-9 4-8 4-10 4-9 2-7 1-8 1-6-1-5-2-5-3-6-5-7-5-7-7-7-7-8-7-7-7-8-8-9-9-9-8-10-7-10-7-10-6-9-4-10-4-10-3-11-3-11-1-10-1-10v-9l1-8v-7l2-7 1-7 1-6v-6l-1-5-2-4-3-2-6-3-10-3-11-1-13-2-12-1-11-1-9-2-9-2-9-3-14-8-5-4-5-5-6-6-5-6-6-6-6-6-7-4-4-3-4-3-6-4-7-5-8-7-10-9-11-11-13-14-14-16-15-20-10-12-10-14-11-15-12-16-12-17-12-19-13-20-13-20-12-20-13-21-11-21-11-21-10-19-9-19-8-18-6-17-5-16-4-15-2-13-1-12v-12l1-11 2-11 3-10 4-10 5-9 6-9 7-9 8-8 8-7 9-7 10-6 10-5 10-6 11-4 10-4 11-4 11-4 15-4 15-4 15-3 17-3 17-3 36-6 19-2 19-2 19-1 19-2 18-1h17l17-1h32l17 1h18l54 3 19 2 18 2 17 1 17 2 16 2 15 2 14 2 13 2 13 2 32 4 15 3 16 1 15 2h27l11-1 11-2 9-3 9-4 9-5 9-7 9-7 8-9 7-9 7-10 6-9 5-10 5-9 3-10 4-10 3-10 2-11 2-11 1-11v-31l-1-9-2-12-4-12-4-12-5-12-6-12-7-10-7-10-15-15-10-6-10-6-11-6-12-6-12-5-11-5-10-5-9-4-9-4-10-5-10-5-10-5-10-6-10-6-10-7-10-6-9-6-9-7-10-8-10-8-12-9-11-9-12-9-12-9-12-9-11-9-12-8-10-7-10-6-11-7-11-7-12-8-12-7-12-7-12-7-12-7-10-6-10-7-10-5-11-8-11-7-12-7-11-7-12-8-12-7-12-7-11-6-11-5-11-5-9-4-10-4-11-4-11-4-12-4-12-4-12-4-13-5-12-4-12-5-12-4-11-5-12-5-12-6-12-7-13-7-13-8-14-8-13-9-13-9-13-10-12-9-11-9-10-10-11-10-10-10-10-11-11-12-10-12-10-12-10-13-9-12-9-11-8-11-7-10-6-9-8-11-7-11-7-11-7-11-7-12-6-11-5-11-6-11-4-10-4-11-4-11-4-12-4-13-4-13-6-28-3-14-3-12-1-12-2-11-1-11-1-11-1-10v-34l1-10 1-11 2-9 1-10 2-10 2-11 3-12 3-12 3-12 4-13 4-12 4-12 4-11z" fill="#d10000"/><path d="m2420 6449 12-1h12l13-1 14-1h13l14-1h50l12-1h109l10-1h21l11-1 11-1 11-1 10-1 9-2 9-2 9-2 10-4 10-5 11-5 11-6 10-6 11-6 10-5 11-5 10-5 11-4 12-5 13-5 13-4 12-4 11-4 11-4 10-4 10-4 10-4 10-5 10-4 9-5 7-4 8-3 8-5 8-6 8-6 6-6 5-8 4-7 1-7 1-8v-19l-1-10-2-9-2-9-2-8-3-8-3-9-3-8-4-9-4-8-4-9-4-8-3-8-4-9-4-10-4-10-4-11-3-12-4-10-3-11-2-9-4-12-3-13-2-12-1-11v-9l1-6 1-3 1-2 3-2 2-2h4l3-1 8 2 5 1 4 2 8 3 8 5 10 6 10 6 8 7 8 6 7 7 8 6 7 7 8 6 7 5 8 3 8 1h10l11-1 11-1 11-2 11-1 8-1 9-1h36l8 1h17l10 1 11 1 10 2 16 4 7 3 8 4 7 6 8 6 7 6 6 7 7 6 7 8 8 8 8 7 9 5 8 4 9 2h20l10-2 9-1 9-1 8-1 8-1 9 1 7 2 7 2 5 4 5 5 4 6 5 8 4 9 3 9 3 9 2 7 4 16 2 9 2 8 2 9 1 7 1 8 1 9 1 9 2 8 1 6 2 3h2l2-3 3-6 4-9 4-11 4-12 4-11 3-9 4-9 3-10 8-20 4-10 4-9 4-8 8-18 5-9 5-8 5-9 6-8 5-6 6-6 5-6 7-5 7-5 8-5 9-4 16-6 8-2 7-2 9-2 9-1 18-2h18l8 1h7l8 1 9 2 8 2 9 2 8 3 8 2 8 4 7 3 8 4 8 5 9 5 9 5 8 6 8 5 8 5 7 5 8 6 8 6 8 6 7 6 7 6 12 12 6 7 6 7 5 6 4 5 3 4 3 1 2-2 2-5 2-7 3-7 3-7 3-4 3-3 4-3 5-3 6-2 6-2 7-2 7-1 8-1 8-1h10l11-1h22l10-1h21l11-1 11-1 12-1 12-1 11-1 11-2 20-4 10-3 11-3 11-3 11-4 10-3 10-3 9-3 8-3 8-3 9-3 9-4 9-3 9-3 8-4 8-3 8-4 9-3 9-4 9-3 9-2h9l8 1 7 3 7 4 6 7 7 9 7 11 7 12 6 13 6 12 6 13 5 10 5 11 5 12 6 12 6 13 6 13 6 13 6 12 5 12 6 12 4 10 5 10 4 11 5 12 6 11 5 13 5 12 5 12 4 12 5 11 4 11 4 11 4 11 4 11 4 12 4 12 4 12 4 13 4 12 3 12 4 12 3 11 4 10 3 11 4 11 4 12 4 13 4 12 4 12 4 12 4 11 4 10 3 9 3 9 2 7 2 8 2 7 1 7v8l-1 8-2 7-4 8-4 7-6 8-6 6-6 6-8 7-8 8-11 8-12 8-13 10-15 9-16 10-18 10-18 10-19 11-21 10-21 11-14 6-16 8-16 7-17 7-18 8-19 8-20 9-21 8-21 9-23 9-23 9-23 9-24 8-23 9-24 8-23 8-24 8-23 7-44 14-23 7-21 6-22 6-23 6-22 6-24 5-23 6-25 5-25 5-25 5-26 5-54 10-27 4-26 4-27 4-27 3-26 4-26 3-26 2-25 3-25 2-24 2-25 2-23 2-23 1-72 3-25 1-52 2h-54l-27 1h-26l-27-1h-53l-50-2h-24l-23-1-22-1-22-2-21-1-20-1-19-2-26-2-25-3-24-3-25-3-24-3-24-4-24-5-24-5-23-5-22-5-42-12-19-7-36-14-16-7-15-7-15-8-14-8-14-9-15-9-14-10-14-11-14-11-14-12-14-13-14-13-14-13-14-14-13-14-13-13-12-14-12-14-12-13-12-14-11-13-13-16-13-16-13-17-14-17-13-17-13-18-13-18-12-18-20-34-8-16-7-15-4-14-4-13-1-11 1-11 2-11 5-10 7-9 10-9 11-8 13-7 15-6 16-6 16-5 16-4 16-3 15-3 15-2 14-2 15-3 15-2 15-2 28-4 14-1 13-2 12-1 12-1 11-1 10-1z" fill="#00b000"/><path d="m2452 4170h-1l-3-3-9-7-15-11-19-14-21-17-22-16-21-16-19-15-17-12-15-12-13-10-12-9-11-8-12-10-12-10-12-9-12-10-11-9-11-9-10-9-10-8-9-7-8-7-7-6-6-6-9-8-8-7-7-8-7-6-5-7-5-5-3-5-2-5-1-6v-5l2-6 2-6 4-6 3-6 4-5 10-14 5-8 5-9 4-8 3-6 6-16 2-8 3-9 2-8 2-8 2-7 1-9 2-9 1-10 1-11 1-10v-38l-1-11v-11l-1-10-1-11-1-9-1-10-2-9-2-11-3-10-2-11-3-10-3-10-3-10-3-9-3-10-4-11-5-12-5-11-5-11-6-10-7-10-5-8-7-8-7-8-24-24-8-7-8-6-7-5-7-5-8-5-16-8-6-3-6-4-3-4-1-3v-5l3-5 4-6 5-8 6-8 5-8 4-9 1-8-1-7-3-7-7-7-10-7-11-7-13-7-13-6-13-5-12-5-11-4-11-5-10-4-11-4-10-4-10-5-9-3-8-4-8-4-9-4-9-5-10-5-10-6-10-5-10-5-10-4-8-4-9-4-9-5-11-4-10-5-11-5-11-4-11-5-10-5-10-4-12-6-13-6-13-6-13-5-11-5-8-2-7-1-4 1-1 3v5l3 7 5 9 6 9 6 10 7 10 7 9 6 8 7 9 7 9 7 9 6 9 7 9 6 9 6 9 5 9 6 10 6 11 6 12 12 22 5 10 5 10 5 9 4 9 5 9 5 10 5 10 4 11 8 20 4 12 4 12 4 13 4 13 5 12 5 11 4 8 5 6 4 3 4 1h10l5-2 6-3 10-8 5-4 5-4 9-7 9-7 9-6 10-5 9-3h9l6 1 6 3 7 5 7 5 14 14 7 7 6 8 7 7 7 9 7 9 7 9 7 10 7 9 5 9 5 9 8 18 4 10 3 10 2 10 2 10 2 8 1 8 2 9 1 9v28l-1 8-4 18-3 10-4 9-4 9-5 8-6 6-7 7-8 7-16 12-6 5-7 5-6 5-7 4-6 4-7 2-6 1-6-2-7-3-8-4-8-5-8-6-7-6-6-5-7-6-8-6-7-6-7-6-6-5-7-5-7-5-7-6-16-12-7-5-5-4-6-5-7-5-7-6-7-6-8-5-7-5-7-5-7-6-7-5-8-6-7-7-6-6-5-7-3-7-1-7v-7l2-8 4-8 5-9 5-9 5-8 5-7 4-6 2-4 1-3 2-4v-7l-1-2-1-2-4-2-2-2-2-1-3-1-4-1-3-1-4-1-5-1-8-1-10-1-11-2-14-2-15-2-16-3-18-4-18-5-19-5-18-6-19-7-19-8-17-8-18-9-18-9-19-11-19-10-19-11-19-11-18-10-16-9-15-7-13-7-11-4-9-3-7-1-6 1-3 3-2 5v7l2 9 3 10 4 12 5 12 7 14 6 13 7 14 7 14 8 13 7 14 7 15 8 15 8 15 8 16 8 15 8 16 7 15 7 14 6 14 5 12 5 11 4 11 6 14 4 15 4 14 4 13 3 12 2 10 3 9 4 14 2 5 3 6 6 8 3 3 6 2h5l5-2 6-4 7-4 7-6 7-7 6-5 13-13 7-6 8-6 14-8 7-1 6-1 14 4 8 5 8 5 8 6 8 6 16 14 9 7 10 8 11 9 10 9 10 8 9 8 9 7 8 6 8 7 7 8 8 7 7 8 7 8 5 7 6 8 4 8 4 9 4 9 3 11 2 10 1 9v9l-2 8-3 8-5 7-6 8-9 8-11 7-12 7-13 7-15 7-9 4-10 4-11 4-12 4-13 4-13 4-15 4-15 3-16 3-16 2-15 1-16 1h-32l-16-1-17-2-17-3-18-4-19-4-18-4-18-5-18-6-16-5-15-6-13-6-12-5-9-5-8-5-5-4-4-3-3-4-3-3-2-3-1-4-1-3v-6l1-4 2-3 1-3 3-3 2-3 3-2 3-3 3-2 3-3 6-4 8-5 8-6 8-5 8-6 7-6 7-6 5-6 4-5 2-4 1-5 1-4v-10l-2-5-6-10-5-5-5-4-7-4-8-4-9-3-10-4-12-4-14-4-15-5-16-5-18-5-17-6-18-6-18-7-17-8-18-8-30-16-16-10-16-10-17-10-16-11-17-11-15-10-16-10-14-9-12-8-12-7-10-6-9-4-5-2-12-3h-10l-2 1-3 1-2 1-4 4-1 3-2 6v3l-1 4v4l1 4v5l1 4 2 10 2 5 1 5 2 6 4 10 4 11 5 13 7 13 7 15 8 15 8 16 10 17 9 16 10 17 11 16 10 16 11 16 10 16 10 13 10 14 11 14 11 15 12 14 13 15 12 15 14 15 13 15 13 14 13 13 13 12 13 12 12 10 12 10 12 9 13 10 13 9 14 8 15 8 14 8 16 7 15 6 15 6 16 5 15 4 14 4 15 4 14 3 14 3 13 2 15 2 15 3 15 2 16 2 17 1 32 2 16 1h31l14-1 13-1 13-1 14-2 15-3 14-3 15-4 15-5 14-5 14-5 14-6 13-6 12-5 12-6 11-5 13-6 13-7 13-7 14-7 13-7 13-7 11-7 11-6 9-5 7-5 7-4 7-5 6-4 6-3 6-3 6-1 5-1h6l6 1 14 6 9 5 9 7 11 7 12 9 12 9 12 10 12 10 12 11 12 10 10 9 11 9 11 10 11 10 12 10 12 11 12 10 12 11 11 10 11 9 10 9 10 8 10 8 10 8 10 9 12 9 13 10 14 10 15 12 13 10 12 9 7 5 3 3h1" fill="#ffd600"/><path d="m2876 5202 1 1 3 4 7 10 10 14 11 15 11 13 9 12 8 10 7 8 6 7 8 8 8 8 9 8 9 7 10 7 9 7 9 6 9 5 9 6 10 6 11 6 12 7 11 6 11 6 10 4 10 5 9 3 9 4 10 3 9 3 10 2 8 2 9 2 7 2 8 2 8 2 8 1 9 2 9 2 9 2 8 1 8 1 8 1 9 1 9 1 9 1h17l8 1h15l8-1h10l10-1 6-1h1"/><path d="m3161 5427h1l4 3 10 6 16 10 19 11 20 12 18 11 17 9 14 8 13 7 10 5 11 5 22 10 11 4 12 4 11 3 11 3 11 2 10 3 10 1 10 2 10 2 10 2 12 1 12 2 12 1 13 2h12l11 1h22l10-1 10-1 10-2 11-2 11-2 22-6 10-3 10-3 10-3 10-3 11-3 11-3 11-4 12-3 12-4 12-3 12-4 10-3 11-3 10-4 11-3 11-4 12-3 12-4 12-4 13-3 12-3 11-3 12-2 11-3 13-2 13-2 14-2 15-2 15-2 14-2 14-1 13-2 12-1 13-1 12-2 14-2 14-2 14-2 14-2 14-3 14-4 14-3 13-4 22-8 13-4 13-5 13-6 14-5 13-6 13-6 13-6 13-5 11-6 12-5 13-6 13-6 14-6 14-6 14-6 14-6 13-6 12-5 12-5 11-5 11-5 12-4 11-5 12-5 12-6 11-5 11-5 10-5 9-5 8-4 10-7 10-7 9-7 10-8 9-9 9-9 8-9 7-9 6-8 6-9 7-10 8-12 9-15 10-15 8-14 7-10 3-4v-1"/><path d="m2640 4897 3 5 4 5 5 5 4 5 5 4 5 4 12 6 7 3 7 2 7 2 7 1 7 1 16 2 7 1 7 1h7l6 1 7 1 7 1h6l5 1 5-1h6l6-1 7-1 8-2 8-1 7-2 8-1 8-2 10-2 10-2 9-3 8-2 8-3 10-4 9-5 10-5 16-12 6-5 6-5 6-6 6-7 6-6 5-7 5-7 6-7 6-8 6-9 7-10 6-9 7-8 6-9 6-9 7-9 7-8 6-8 11-11 4-6 5-5 4-4 3-5 3-4 2-5 1-7v-14l-2-12-2-7-2-8-2-7-3-6-2-5-2-6-3-6-3-5-2-6-6-10-4-6-3-6-4-6-8-12-1-2-2-2-2-2-4-4-3-1-4-1h-5l-5 1-12 4-8 3-8 4-9 5-10 7-11 7-11 7-11 8-13 10-14 10-15 11-15 12-16 13-17 14-17 13-16 14-17 14-16 13-15 13-14 12-13 12-12 11-11 10-10 9-13 12-11 11-17 19-5 8-5 7-2 5-2 5v7l1 3z" fill="#d10000"/><path d="m2891 5190 2 1 9 3 13 4 13 5 10 3 9 3 8 3 9 3 10 3 9 3 9 3 9 2 8 2 9 2 10 1 9 1 9 2 8 1h8l8 1 8 1h8l8 1h7l7 1h68l4-1h4l1-1h1v-1h1v-1"/><path d="m2468 6609-6-7-6-7-8-7-8-7-8-8-9-7-8-7-7-6-8-6-9-7-9-6-9-7-10-6-10-6-9-5-9-4-10-5-11-4-11-3-13-4-12-3-13-3-12-2-11-2-10-1-10-1-10-2h-11l-11-1-12-1h-23l-11-1-10 1h-23l-13 1h-13l-14 1-13 1-14 2-13 1-13 2-12 2-10 1-11 2-11 2-11 2-12 2-13 3-12 3-13 3-26 6-12 3-13 4-11 2-12 4-13 3-13 3-28 8-15 5-15 4-15 5-14 4-15 5-14 5-13 4-13 5-15 6-16 6-16 6-16 6-16 7-17 8-15 7-15 7-14 6-12 6-11 6-10 6-14 8-12 8-11 8-11 9-8 8-7 7-6 7-5 6-6 8-5 9-4 10-3 10-2 10-1 10v16l1 10 2 10 2 10 2 11 2 9 3 10 6 18 4 10 5 10 5 10 6 10 5 9 7 8 6 7 8 8 9 8 10 8 10 7 11 7 11 6 11 6 9 4 10 5 10 4 12 4 12 4 12 4 12 4 12 3 12 3 12 3 12 2 13 2 13 2 15 2 15 1 16 2 15 1 15 1 14 1 15 1h11l13 1h13l13 1h28l14 1h27l12 1h12l11 1h26l14 1h13l14 1h14l12 1h12l12 1h32l11 1h101l9-1 10-1 10-1 11-2 22-8 11-5 11-7 11-7 11-9 11-10 11-11 9-12 10-13 10-14 10-15 10-17 11-18 10-19 10-19 10-19 10-19 9-18 8-18 7-16 6-16 6-14 5-12 5-16 4-14 3-13 2-11v-20l-1-8-2-7-2-6-3-5-3-4z" fill="#fff"/><path d="m4102 4658-2 1-8 6-12 8-12 8-9 5-8 4-7 3-8 3-18 4-9 1-8 1-7 1h-8l-8 1h-9l-9 1h-16l-8 1h-29l-10-1-9-1-8-1-9-2-10-2-22-6-10-3-10-4-8-3-9-3-9-4-10-4-10-4-9-5-9-5-9-4-9-6-9-6-9-6-10-7-10-7-9-7-8-6-8-6-7-6-8-6-8-6-8-6-8-6-8-6-8-5-8-5-8-5-9-5-9-6-10-5-11-6-10-5-10-4-9-5-10-4-10-5-11-4-12-4-12-5-12-4-12-3-11-3-10-3-10-2-11-2-11-2-12-2-12-2-12-2-11-1-11-2-10-1-10-1h-11l-11-1-11-1h-44l-10 1h-9l-12 2-13 1-12 2-13 3-12 3-11 2-10 3-9 3-8 3-7 4-8 4-8 4-7 5-8 4-8 5-8 6-7 4-8 5-10 6-11 7-14 8-15 9-14 9-10 6-4 3h-1"/><path d="m2940 2986-1-1-7-4-12-8-15-10-14-9-12-7-10-6-10-4-10-4-10-3-12-3-11-3-12-2-12-2-11-1-11-1h-10l-12-1-12 1h-12l-12 1-12 2-11 2-10 2-10 3-10 4-11 4-11 5-10 5-10 6-9 5-7 6-8 6-7 7-7 7-7 8-6 8-6 9-4 8-4 8-4 9-3 9-3 11-2 10-2 11-2 11-1 10-1 10v40l2 11 1 10 3 9 2 9 4 9 4 9 5 10 5 10 7 9 6 9 6 8 7 7 6 7 7 6 8 7 9 6 8 7 8 5 8 5 8 5 8 4 8 4 9 4 10 4 10 4 9 3 10 3 9 2 9 2 10 2 10 1 12 2 11 1 10 1h11l9 1h19l10 1h10l10-1h19l9-1 9-1h9l9-2 10-1 18-2 9-2 7-1 10-2 9-1 10-2 9-2 8-1h8l7-1h7l14 2 7 2 7 3 14 7 9 4 9 4 9 4 9 2 10 2 10 1 12-1h11l10-1 9-2 8-1 8-2 7-3 6-3 5-4 4-5 3-6 3-8 2-9 1-10v-20l-1-10-1-11-3-11-3-11-3-10-4-8-4-7-6-7-8-8-9-8-6-5-1-1"/><path d="m3309 2031 9-14 10-13 10-12 11-13 11-12 11-12 11-12 12-11 11-10 12-9 11-9 12-9 12-9 14-8 14-9 15-8 16-8 17-8 16-6 17-5 16-4 15-2h15l14 1 11 2 12 4 12 4 12 6 11 8 12 8 11 10 11 11 10 11 10 11 8 12 8 12 7 12 6 12 5 13 5 13 5 13 4 15 4 15 3 16 3 17 4 34 2 18 1 17v17l1 17v48l-1 17v17l-1 19-2 38-2 20-1 20-2 20-3 20-4 38-3 19-6 36-4 17-3 18-4 18-5 19-5 19-5 20-5 19-6 20-6 19-7 19-6 19-7 17-6 17-7 16-6 15-7 15-8 17-8 16-8 16-10 16-10 16-10 16-11 16-11 15-12 15-11 13-12 13-12 11-11 11-12 10-12 10-13 9-14 9-14 8-15 8-16 8-16 7-17 6-17 5-16 4-16 3-15 2-15 1-15 1-15-1-15-1-15-3-16-3-16-5-16-6-16-6-15-8-15-8-14-9-13-9-12-10-11-11-10-10-9-12-9-12-8-13-8-15-8-15-7-16-6-16-6-17-5-16-4-17-4-15-3-16-3-14-2-14-2-14-1-14-1-15-1-14v-31l1-16 1-16 2-16 2-16 3-16 4-15 3-15 4-16 4-14 5-14 5-15 5-16 7-16 6-18 7-17 8-18 7-19 8-18 8-17 8-18 8-17 8-16 8-16 8-15 8-15 8-16 8-15 8-16 9-16 9-16 10-16 9-16 9-16 10-15 9-14 8-14 9-12 8-12 7-12z" fill="#fff"/><path d="m2498 3459h19l15 1 13 1h10l8 1 8 2 8 3 8 4 8 5 8 5 7 7 7 7 12 12 7 7 7 8 8 8 7 8 7 8 14 14 7 8 7 8 8 8 7 8 8 7 7 7 7 7 7 7 7 7 8 7 9 8 8 7 8 8 8 7 7 8 32 32 9 9 8 9 9 8 9 7 7 6 8 6 9 7 9 6 10 7 9 6 10 6 10 6 9 6 10 5 9 5 10 6 10 5 11 6 11 6 11 5 12 5 11 5 10 4 11 4 10 4 11 3 12 3 12 3 13 3 13 3 14 2 13 2 12 2 13 2 10 1 12 1 11 1h13l13 1h13l13 1h37l11-1h11l13-1 13-1 13-2 14-1 14-3 14-2 13-3 13-3 12-4 12-3 12-5 12-4 13-5 13-6 14-6 13-6 13-7 12-5 12-6 11-5 11-6 11-5 11-6 12-5 12-6 11-6 12-6 11-6 11-6 11-6 11-6 12-7 12-7 12-7 12-8 13-8 11-8 10-7 10-6 8-7 9-7 9-8 8-8 8-7 7-6 8-6 7-5 7-4 7-3 8-2 10-3 10-1 9-1 10-1 8-1h17l9-1h29" stroke-width="45"/><path d="m2870 2736 6-9 6-8 6-9 7-9 6-11 6-11 6-12 6-13 6-14 6-15 4-13 5-13 5-14 5-16 6-17 6-18 5-19 12-38 6-18 6-19 10-34 5-16 5-16 5-15 5-16 10-32 5-16 5-16 5-15 5-15 5-14 5-13 4-12 8-22 5-13 5-12 5-12 4-12 5-12 5-13 5-12 5-11 5-11 4-10 4-10 4-9 4-12 5-11 4-12 5-13 5-12 4-12 4-11 4-11 6-18 3-10 3-10 3-10 2-20-1-10-1-10-3-10-3-8-3-7-4-8-5-9-6-8-6-8-8-8-8-7-8-6-9-5-9-3-9-2-10-2h-11l-11 2-13 2-13 3-13 4-13 5-13 6-12 5-11 6-11 5-9 6-11 7-11 7-10 7-10 8-10 9-10 10-10 10-10 11-10 11-10 13-8 9-8 10-9 12-9 12-10 13-11 15-11 14-10 16-11 15-11 16-10 15-10 15-9 15-9 15-9 15-9 15-9 16-9 16-9 16-9 17-8 17-8 16-8 16-7 14-7 14-6 13-6 12-5 11-6 12-5 12-5 11-4 11-5 12-4 12-4 11-3 12-3 13-3 12-3 13-2 14-2 12-2 14-2 14-1 16-2 17-1 18-1 17-1 18-1 18v17l1 16v15l1 14 2 14 3 17 4 16 5 15 6 14 6 14 7 12 7 11 7 9 7 8 7 7 8 7 8 7 9 7 9 5 10 5 9 4 10 3 9 2 10 2h24l13-1 14-3 13-3 12-6 11-6 9-6 10-7 9-9 10-9 9-10 9-11 9-10 8-10 7-10z" fill="#fff"/><path d="m3489 1649h1l4-3 10-6 16-8 19-10 20-11 19-10 18-8 16-7 14-5 13-4 13-4 13-2 13-2 14-1h29l15 1 30 4 14 3 13 4 12 4 12 4 12 5 11 6 12 6 11 7 12 9 11 9 11 10 10 10 10 11 8 11 8 12 7 12 6 11 6 12 5 14 5 15 6 17 6 20 6 22 6 23 6 22 6 21 4 15 2 9 1 4v1"/><path d="m3278 1680v-1l-1-5-3-10-4-14-5-16-5-14-4-13-10-18-5-6-7-7-7-5-8-5-10-5-10-4-11-4-11-3-12-2-11-2-11-1-11-1-12-1h-13l-14 1-14 1-15 2-14 3-13 4-13 4-13 5-20 12-11 7-11 8-12 9-12 10-12 11-13 11-12 12-12 11-11 12-12 12-9 10-10 9-10 11-10 11-11 11-11 12-11 13-12 13-11 14-12 13-11 14-11 14-10 13-10 13-10 13-9 14-9 13-9 14-9 14-9 15-9 16-9 16-9 16-9 17-9 17-8 16-8 16-7 16-7 15-6 15-6 14-6 13-6 15-6 16-6 15-5 16-12 32-5 16-5 15-5 16-5 14-4 14-5 13-4 12-4 12-5 13-4 14-6 14-5 14-5 14-6 15-6 14-5 14-6 14-5 13-5 13-5 13-4 13-5 14-6 15-6 17-7 19-7 22-8 23-7 22-6 17-4 12-2 5v1"/><path d="m4036 5613 12 8 12 8 11 8 12 7 12 8 11 7 11 7 11 7 10 6 9 6 10 6 8 5 22 14 11 7 12 7 11 8 12 7 12 8 10 7 10 6 10 7 9 6 10 6 10 6 10 7 9 6 10 7 9 5 8 6 7 4 6 4 10 7 9 5 9 5 8 4 7 3 6 2 7 1h14l7-1 6-2 5-2 6-2 5-4 5-3 4-3 8-8 3-5 4-5 4-5 3-5 8-10 5-6 3-5 3-5 4-6 3-7 2-7 2-7 1-6v-13l-1-7-1-8-1-6-1-6-2-5-3-5-3-6-4-5-9-9-5-4-5-5-7-5-7-5-7-5-7-5-7-5-8-5-9-6-20-12-9-6-8-5-9-5-9-6-11-7-10-7-10-6-10-7-9-6-10-6-9-6-10-7-11-6-9-6-9-6-8-5-8-4-6-4-7-4-7-4-7-4-14-8-7-4-7-5-8-6-9-6-9-6-10-8-9-7-9-6-7-5-6-5-5-3-4-3-3-2-4-1h-14l-6 1-7 1-8 1-9 2-10 1-12 2-12 2-13 2-12 1-12 2-12 2-12 2-12 2-12 1-13 2-12 3-12 2-10 2-10 1-8 2-7 2-3 1h-2l-6 3h-2l-1 1-2 1-2 2v2l-1 1v4l4 8 2 2 4 4 2 3 3 2 6 6 7 6 10 7 10 9 12 9 13 10 15 10 14 11 15 10 14 10 14 10 13 9z" fill="#ffd600"/><path d="m2303 4762 6 8 7 7 7 7 7 8 7 7 7 6 6 6 6 5 8 7 8 7 9 7 9 6 9 5 9 4 7 2 8 3 9 2 9 2 10 2 10 1 10 2 9 1h9l11 1 10 1h44l9-1 9-1 10-1 10-1 10-2 11-2 20-4 9-2 9-2 10-3 11-2 10-3 11-3 10-3 9-3 8-3 8-2 8-4 8-3 7-4 8-4 7-4 7-5 12-10 7-6 7-7 8-7 8-8 8-9 7-8 8-8 6-7 14-14 7-8 8-9 7-8 8-8 7-8 6-8 7-7 7-9 16-18 8-10 8-9 6-9 7-8 5-7 5-8 5-7 4-8 5-8 3-8 3-7 3-7 1-7 2-7v-8l1-8v-17l-1-9v-8l-2-16-1-9-2-9-2-9-2-10-3-9-3-8-4-7-5-8-5-7-6-7-7-8-7-6-8-7-7-6-6-5-7-5-7-4-8-5-8-5-8-4-7-4-8-4-7-3-7-4-16-6-9-3-9-2-8-3-8-2-16-2-8-1-9-1h-26l-8 1-8 1-10 1-10 2-10 2-11 4-9 3-8 4-4 3-5 3-6 5-7 6-9 7-10 9-12 11-14 13-16 14-18 17-11 10-12 11-14 12-14 13-15 14-16 15-16 15-17 16-17 16-17 16-16 17-16 15-14 15-14 15-13 13-11 13-11 12-9 11-8 12-8 10-6 11-5 9-4 10-3 8-1 8-1 8v7l1 6 2 6 2 5 3 4 3 5 3 4z" fill="#d10000"/><path d="m2288 6848 4-11 6-10 7-12 8-11 9-11 10-10 10-10 9-9 9-7 9-7 9-7 8-5 9-6 8-6 10-5 9-5 8-5 9-4 9-4 8-4 9-5 9-5 10-5 11-5 11-5 12-6 11-5 11-5 10-5 10-4 10-4 10-4 11-4 11-4 12-4 12-3 11-4 11-3 11-3 11-2 11-3 11-3 13-2 13-3 13-2 13-3 13-2 13-2 12-2 12-1 11-2 12-1 12-2 13-1 13-1 13-1h12l12-1h22l11-1 11 1h24l12 1 13 1 12 1 11 1 12 1 11 2 10 1 12 2 12 2 12 3 13 2 12 3 12 3 12 2 10 3 10 3 12 4 12 3 12 5 13 4 12 5 11 5 10 5 10 6 10 5 10 6 10 7 11 8 11 8 10 8 9 8 9 9 7 6 7 7 7 8 7 8 7 8 7 9 7 8 6 9 5 8 5 8 6 9 5 11 5 12 5 12 5 12 4 12 3 12 4 11 2 9 4 20 2 11 2 11 2 10 1 11 2 9 1 10 1 8v15l-1 5-1 6-2 5-2 5-4 6-10 10-7 6-8 5-9 5-11 4-11 5-13 5-12 4-13 4-14 4-32 8-19 4-20 4-21 3-22 4-23 3-25 3-24 3-52 4-25 1h-26l-26 1-78-3-24-2-50-6-26-3-26-4-27-4-27-5-56-12-28-6-28-6-27-7-26-7-25-7-25-7-23-7-22-7-20-7-19-7-18-7-16-6-15-7-17-7-15-8-14-8-13-8-11-8-10-8-9-8-7-8-6-8-5-8-3-8-3-8-1-7-1-7v-7l1-6 2-7z" fill="#fff"/><path d="m2232 4239-8 3-8 5-9 4-9 5-8 5-7 6-7 5-7 6-7 8-8 8-7 9-7 10-5 7-5 9-5 9-6 11-5 10-4 10-4 10-2 8-3 9-2 9-1 9-2 18v17l-1 9v47l1 9v9l2 9 1 8 3 8 3 9 4 9 5 9 5 8 6 8 6 8 7 7 9 8 9 8 10 8 10 8 10 7 10 6 8 5 9 5 9 4 9 3 9 3 10 3 10 2 9 1 10 2 10 1 11 1 12 2 26 2 13 1h11l11 1 11 1h46l12-2 10-1 11-2 18-6 9-3 10-4 10-5 11-5 9-5 10-5 8-6 9-5 10-7 20-16 10-9 9-9 8-9 6-8 6-8 5-8 4-7 4-8 3-9 3-8 2-7 1-7 2-7 1-8 2-10 1-10v-22l-1-11-2-9-2-10-2-11-3-11-3-12-4-11-4-10-3-9-4-9-5-8-5-9-6-8-6-8-7-7-6-7-7-6-7-5-6-5-8-5-9-5-10-5-11-5-12-5-12-5-13-4-13-5-12-3-13-4-14-3-15-3-16-4-16-3-16-3-16-2-28-4-12-1-11-1-15-1h-13l-12 1-11 2-10 2-8 3-7 3z" fill="#d10000"/><path d="m2246 4048 1-8 1-10 3-10 3-11 5-10 4-10 5-6 4-7 6-7 6-6 7-6 7-6 6-5 7-5 6-4 7-5 7-4 8-4 7-4 8-4 8-3 7-2 8-3 8-2 9-3 10-2 9-2 10-1 8-2h9l16-2h9l9-1h25l8-1h20l11-1h38l9 1 9 1 10 2 8 2 8 2 8 2 9 4 9 4 9 4 10 6 9 6 7 4 7 6 9 6 8 7 8 7 8 7 6 7 6 6 5 6 5 7 4 8 4 7 3 8 3 8 4 14 2 7 2 8 2 9 1 9 2 10 1 9 1 10v10l1 10v10l-1 12-1 12-1 12-2 12-3 11-3 9-8 18-6 9-7 8-8 8-8 7-8 7-9 5-7 4-8 4-9 4-10 3-10 4-10 3-11 3-10 2-11 2-10 2-10 1-11 1-12 1-13 1-13 1-13 1h-48l-11-1h-11l-12-1-11-1-12-2-12-2-11-2-10-2-10-3-9-3-10-5-11-5-11-6-10-8-10-8-9-8-8-8-8-8-7-8-7-9-6-10-7-10-6-10-5-10-4-9-3-8-4-10-3-10-2-10-1-9-1-8-1-7-1-6-2-14z" fill="#d10000"/><path d="m1481 6669 1 1 5 3 12 7 17 10 18 10 17 10 16 9 13 7 13 6 12 5 10 4 22 8 12 3 12 4 13 3 13 3 13 3 13 2 12 3 12 1 12 2 13 2 12 1 14 2 14 1 15 1 16 1 15 1 16 1h15l15 1h93l15-1h30l15-1h15l30-2h15l14-1h17l18-1 38-2h19l19-1 18-1 17-1h15l13-1h11l9-1h16l1-1h3l-1 1h-7"/><path d="m3533 6267v1l1 7 1 14 1 16 1 15 1 11v18l-2 10-1 9-3 9-3 8-4 7-3 6-5 6-5 6-6 7-6 6-7 5-7 5-6 3-6 4-8 3-8 4-10 3-9 3-10 3-10 3-9 2-10 2-10 3-13 3-13 3-14 4-15 4-16 5-15 4-17 6-12 4-14 5-15 5-17 7-19 7-22 8-24 10-25 10-25 9-23 9-16 7-11 4-4 2h-1"/><path d="m3983 6181v5l1 10 2 15 1 19 2 20 2 18 1 16 1 15 1 12 1 11 1 11 1 12v12l1 12v44l-1 10v8l-1 8-2 9-3 9-3 8-4 9-5 7-5 7-6 6-6 5-7 4-8 4-10 4-10 5-12 4-12 3-11 4-12 4-11 2-10 4-12 3-13 4-13 3-14 4-14 4-14 3-13 3-13 3-11 2-12 3-12 2-14 2-14 3-15 3-15 4-15 3-16 4-15 5-16 4-16 5-12 5-13 4-14 5-15 6-17 7-18 8-21 9-23 10-23 10-23 11-22 9-18 8-13 6-7 3-4 2"/><path d="m2263 6883-3 7-4 18-2 8v9l-1 8v9l-1 9v21l1 10v9l1 9v9l2 9 1 9 2 9 3 8 2 5 3 6 4 7 6 7 7 7 8 8 9 7 11 8 8 5 10 5 10 6 12 7 12 6 14 7 14 7 14 6 14 7 13 5 13 6 13 5 13 4 13 4 13 5 14 4 15 4 15 3 16 4 32 6 16 3 17 2 16 2 15 2 15 1 17 2 17 2 18 1 20 2 19 1 20 2 38 2 19 2 34 2 16 1h16l16 1 16 1 16 1 17 1 17 1h17l18 1 17 1 17 1h17l17 1 16 1 17 1h14l16 1h15l17 1 18 1h18l18 1h19l18 1h19l18 1h97l17-1h17l17-1 17-1 18-1 18-1 18-2 18-1 18-2 17-1 17-2 17-2 17-2 30-4 16-2 17-2 18-2 18-2 19-3 19-2 18-3 18-3 18-2 17-3 17-2 15-3 15-2 14-2 15-3 15-3 15-3 15-3 15-3 15-3 14-3 14-3 14-4 14-3 12-4 13-3 11-4 12-3 12-4 12-3 12-5 13-4 14-5 28-10 15-5 14-6 15-5 14-6 14-5 13-6 14-5 13-6 14-5 15-7 15-6 15-7 16-6 16-7 16-7 16-7 14-6 15-7 13-6 13-5 12-5 13-6 13-6 13-6 13-6 13-6 12-5 11-5 11-5 9-5 9-4 8-3 7-3 12-6 10-6 10-5 8-5 6-5 5-5 4-5 5-7 4-7 3-7 3-7 2-7 1-6 1-7v-7l1-7-1-7v-6l-1-6v-7l-2-14v-7l-1-6v-7l-1-7v-8l-1-9v-8l-1-9-1-5v-6l-2-6-2-5-2-6-3-5-8-6-5-2h-13l-8 2-10 4-11 4-12 6-14 6-14 7-14 8-14 7-14 8-13 6-13 7-14 7-15 7-16 7-16 8-16 7-15 8-16 6-14 7-14 6-12 5-13 5-13 5-13 5-13 5-13 5-14 5-13 4-14 4-12 5-13 4-12 3-12 4-11 3-11 3-12 4-12 3-13 4-14 4-14 4-15 3-15 4-15 4-14 3-15 4-14 3-15 4-15 3-16 3-16 3-17 4-18 3-19 4-19 3-19 4-19 3-19 3-17 2-17 3-17 2-15 3-16 1-32 4-16 2-16 2-17 1-17 2-17 1-16 1-16 1-16 1-14 1-15 1-14 1-14 1-15 1h-15l-16 1-17 1-18 1h-18l-38 2-19 1h-19l-19 1h-19l-19 1h-16l-16 1h-17l-18 1h-19l-19 1h-20l-20 1h-63l-20 1h-112l-19-1h-19l-19-1h-20l-20-1-19-1-20-1-19-1-19-1-18-1-17-2-17-1-15-1-14-2-14-1-12-1-17-3-16-2-15-2-15-2-15-3-15-3-14-3-13-3-12-3-11-2-10-3-10-3-11-3-12-4-12-4-11-4-12-4-11-4-20-8-8-4-7-4-9-5-9-5-8-6-8-5-8-6-7-5-6-5-5-5-8-6-8-6-8-6-8-5-7-5-5-4-4-3-4-3-4-2-3-2-4-1h-3l-3 1-3 2-5 4-5 6-6 8-5 9z" fill="#fff"/><path d="m4281 6302 7-6 9-5 8-4 9-4 8-2 8-1 7-1h7l8 1 7 2 7 2 7 3 7 3 7 4 7 6 14 12 6 7 6 7 6 8 6 9 5 10 4 10 3 10 1 7 1 8 1 9v10l-1 10-2 18-1 9-2 8-2 9-3 9-3 9-3 10-8 16-4 8-5 6-5 7-7 7-6 7-8 6-7 5-7 3-7 4-9 2-11 2h-10l-11-1-10-2-9-2-9-3-9-4-9-5-8-4-8-5-6-5-7-5-5-5-6-5-5-6-4-6-3-5-3-7-3-6-2-8-1-8-1-8v-8l-1-8 1-9v-9l1-10 2-9 1-7 2-8 1-8 6-16 4-9 4-7 4-7 4-6 5-8 6-7 6-7 6-7 6-6z" fill="#fff" stroke-width="15"/><g stroke="#0ff"><path d="m3248 6546h6l11 1 15 1 16 2 16 2 14 1 12 2 11 2 10 3 10 2 11 4 12 4 14 6 16 6 16 7 15 7 11 4 5 3h1"/><path d="m3095 6246h14l14 1 18 1h18l18 1 16 2 14 1 13 1 12 2 12 2 12 3 13 3 14 3 16 5 18 5 20 6 21 7 20 6 16 6 11 3 4 2h1"/><path d="m3599 6276h1l5 1 11 1 17 1 21 2 22 2 21 2 20 2 17 2 15 2 14 2 14 2 14 2 14 3 16 2 17 4 20 3 21 5 23 4 22 5 18 3 11 3 5 1h1"/><path d="m3440 6504h45l15 1h13l12 1 10 1 10 1 10 2 10 2 12 3 13 3 16 5 16 5 15 4 10 3 5 2h1"/><path d="m3560 6402h1l5 1 12 1 19 1 23 2 24 2 22 2 20 2 18 2 16 2 14 2 13 2 13 2 14 2 13 3 32 6 19 5 19 4 18 4 15 4 9 2 4 1h1"/><path d="m2861 6429h2l3 1 6 1 9 1 6 1 7 1 8 1 10 2 11 2 12 3 12 2 12 3 12 3 12 4 10 3 11 3 12 4 13 5 15 5 16 6 18 7 17 6 14 6 8 3 4 2h1"/><path d="m2594 6492h6l11 1h17l21 1 22 1 21 2 20 1 17 1 16 2 14 1 15 2 12 2 13 2 14 3 15 3 17 3 19 4 20 5 22 5 21 5 18 4 14 3 9 2 3 1h1"/><path d="m3023 6360h1l4 1 9 1 15 3 18 3 19 3 18 3 16 3 15 3 13 3 12 2 12 3 12 3 26 8 15 4 18 6 19 6 20 6 19 7 16 5 10 3 4 2h1"/></g></g><g stroke-width="7.5"><path d="m126 31c-32 128-114 217-184 200-69-17-100-135-68-263 32-127 114-216 184-199 69 17 100 135 68 262" transform="matrix(.035 0 0 .035 96.18 89.005)"/><path d="m174 43c-38 150-146 252-242 228-95-24-143-165-106-314 38-150 146-252 241-228 96 24 144 165 107 314" transform="matrix(.035 0 0 .035 115.185 93.205)"/><g fill="#fff"><path d="m54 10c-24 137-133 118-108-20 24-137 133-118 108 20" transform="matrix(.035 0 0 .035 114.1 91.105)"/><path d="m54 10c-24 137-133 118-108-20 24-137 133-118 108 20" transform="matrix(.035 0 0 .035 95.83 87.325)"/></g></g></g></svg>