<?xml version="1.0" encoding="UTF-8" standalone="no"?>
<svg
   xmlns:dc="http://purl.org/dc/elements/1.1/"
   xmlns:cc="http://creativecommons.org/ns#"
   xmlns:rdf="http://www.w3.org/1999/02/22-rdf-syntax-ns#"
   xmlns:svg="http://www.w3.org/2000/svg"
   xmlns="http://www.w3.org/2000/svg"
   xmlns:xlink="http://www.w3.org/1999/xlink"
   xmlns:sodipodi="http://sodipodi.sourceforge.net/DTD/sodipodi-0.dtd"
   xmlns:inkscape="http://www.inkscape.org/namespaces/inkscape"
   version="1.1"
   id="svg833"
   width="79.870445"
   height="99.755859"
   viewBox="0 0 79.870445 99.755863"
   sodipodi:docname="macoslogo.svg"
   inkscape:version="1.0.2 (e86c870879, 2021-01-15, custom)">
  <metadata
     id="metadata839">
    <rdf:RDF>
      <cc:Work
         rdf:about="">
        <dc:format>image/svg+xml</dc:format>
        <dc:type
           rdf:resource="http://purl.org/dc/dcmitype/StillImage" />
        <dc:title />
      </cc:Work>
    </rdf:RDF>
  </metadata>
  <defs
     id="defs837">
    <linearGradient
       inkscape:collect="always"
       id="linearGradient912">
      <stop
         style="stop-color:#2f67ba;stop-opacity:1;"
         offset="0"
         id="stop908" />
      <stop
         style="stop-color:#5e92de;stop-opacity:1"
         offset="1"
         id="stop910" />
    </linearGradient>
    <linearGradient
       inkscape:collect="always"
       xlink:href="#linearGradient912"
       id="linearGradient914"
       x1="89.978752"
       y1="94.308777"
       x2="45.85939"
       y2="50.189415"
       gradientUnits="userSpaceOnUse" />
    <linearGradient
       inkscape:collect="always"
       xlink:href="#linearGradient912"
       id="linearGradient843"
       gradientUnits="userSpaceOnUse"
       x1="89.978752"
       y1="94.308777"
       x2="45.85939"
       y2="50.189415" />
    <linearGradient
       inkscape:collect="always"
       xlink:href="#linearGradient912"
       id="linearGradient845"
       gradientUnits="userSpaceOnUse"
       x1="89.978752"
       y1="94.308777"
       x2="45.85939"
       y2="50.189415" />
    <linearGradient
       inkscape:collect="always"
       xlink:href="#linearGradient912"
       id="linearGradient847"
       gradientUnits="userSpaceOnUse"
       x1="89.978752"
       y1="94.308777"
       x2="45.85939"
       y2="50.189415" />
    <linearGradient
       inkscape:collect="always"
       xlink:href="#linearGradient912"
       id="linearGradient849"
       gradientUnits="userSpaceOnUse"
       x1="89.978752"
       y1="94.308777"
       x2="45.85939"
       y2="50.189415" />
    <linearGradient
       inkscape:collect="always"
       xlink:href="#linearGradient912"
       id="linearGradient851"
       gradientUnits="userSpaceOnUse"
       x1="89.978752"
       y1="94.308777"
       x2="45.85939"
       y2="50.189415" />
    <linearGradient
       inkscape:collect="always"
       xlink:href="#linearGradient912"
       id="linearGradient853"
       gradientUnits="userSpaceOnUse"
       x1="89.978752"
       y1="94.308777"
       x2="45.85939"
       y2="50.189415" />
  </defs>
  <sodipodi:namedview
     pagecolor="#ffffff"
     bordercolor="#666666"
     borderopacity="1"
     objecttolerance="10"
     gridtolerance="10"
     guidetolerance="10"
     inkscape:pageopacity="0"
     inkscape:pageshadow="2"
     inkscape:window-width="1920"
     inkscape:window-height="1017"
     id="namedview835"
     showgrid="false"
     inkscape:zoom="4.135"
     inkscape:cx="16.69841"
     inkscape:cy="59.751419"
     inkscape:window-x="-8"
     inkscape:window-y="-8"
     inkscape:window-maximized="1"
     inkscape:current-layer="g841"
     inkscape:document-rotation="0" />
  <g
     inkscape:groupmode="layer"
     inkscape:label="Image"
     id="g841"
     style="display:inline;opacity:1"
     transform="translate(-10.204794,-0.08424412)">
    <g
       id="g857"
       style="display:inline;opacity:1;fill:url(#linearGradient914);fill-opacity:1;stroke:none;stroke-opacity:1">
      <path
         style="display:none;fill:url(#linearGradient843);fill-opacity:1;stroke:none;stroke-width:1px;stroke-linecap:butt;stroke-linejoin:miter;stroke-opacity:1"
         d="m 19.951632,10.399033 c 0,0 9.5526,-4.3530837 19.1052,-4.3530837 9.5526,0 17.89601,6.8923817 17.89601,6.8923817 l -9.915357,32.889964 c 0,0 -6.348246,-6.892382 -16.868198,-6.892382 -10.519952,0 -20.072551,5.501814 -20.072551,5.501814 2.073603,-11.463933 6.937847,-22.703875 9.854896,-34.038694 z"
         id="path845"
         sodipodi:nodetypes="csccscc" />
      <path
         style="display:none;fill:url(#linearGradient845);fill-opacity:1;stroke:none;stroke-width:1px;stroke-linecap:butt;stroke-linejoin:miter;stroke-opacity:1"
         d="m 88.633617,50.060459 c 0,0 -9.915357,4.655382 -19.467958,4.655382 -9.5526,0 -18.440145,-7.255139 -18.440145,-7.255139 l 9.371221,-33.555019 c 0,0 8.101572,7.617896 18.621524,7.617896 10.519952,0 19.588875,-5.622733 19.588875,-5.622733 -2.073601,11.463933 -6.756468,22.824795 -9.673517,34.159613 z"
         id="path847"
         sodipodi:nodetypes="csccscc" />
      <path
         style="display:none;fill:url(#linearGradient847);fill-opacity:1;stroke:none;stroke-width:1px;stroke-linecap:butt;stroke-linejoin:miter;stroke-opacity:1"
         d="m 78.174124,87.243046 c 0,0 -10.519951,3.74849 -20.072552,3.74849 -9.5526,0 -18.440145,-6.166868 -18.440145,-6.166868 l 9.854896,-33.555019 c 0,0 7.073761,6.590085 17.593713,6.590085 10.519952,0 20.495768,-3.204354 20.495768,-3.204354 -2.073601,11.463933 -6.514631,21.252848 -9.43168,32.587666 z"
         id="path849"
         sodipodi:nodetypes="csccscc" />
      <path
         style="display:none;fill:url(#linearGradient849);fill-opacity:1;stroke:none;stroke-width:1px;stroke-linecap:butt;stroke-linejoin:miter;stroke-opacity:1"
         d="m 9.3107614,47.991425 c 0,0 8.9540816,-4.630337 18.5066816,-4.630337 9.5526,0 18.024264,6.314609 18.024264,6.314609 L 35.697923,82.780676 c 0,0 -6.159533,-6.466127 -16.679485,-6.466127 -10.5199516,0 -18.51401516,4.65716 -18.51401516,4.65716 C 2.5780265,69.507777 6.3937127,59.326244 9.3107614,47.991425 Z"
         id="path851"
         sodipodi:nodetypes="csccscc" />
      <path
         style="display:inline;fill:url(#linearGradient851);fill-opacity:1;stroke:none;stroke-width:1px;stroke-linecap:butt;stroke-linejoin:miter;stroke-opacity:1"
         d="m 52.0282,27.647581 c 7.965665,0 9.51117,-4.643075 17.086378,-4.643075 12.179874,0 18.694274,8.038131 18.694274,9.582522 0,3.233183 -10.172461,5.236255 -10.172461,19.555952 0,7.608691 6.165955,16.415897 11.460501,19.472705 4.404307,2.542827 -6.914859,20.928557 -16.932669,26.712347 C 64.079182,102.99594 65.778,95.355619 53.046875,95.355619 39.314775,94.945324 42.24523,104.13055 31.101611,97.314817 11.638126,85.306813 2.0592408,47.417444 18.871039,30.605646 33.230517,16.246168 44.062535,27.647581 52.0282,27.647581 Z"
         id="path887"
         sodipodi:nodetypes="zssssscccz" />
      <path
         style="display:inline;fill:url(#linearGradient853);fill-opacity:1;stroke:none;stroke-width:1px;stroke-linecap:butt;stroke-linejoin:miter;stroke-opacity:1"
         d="m 49.634279,22.743701 c 0,0 1.203559,-9.9804 6.0622,-14.8390406 4.85864,-4.8586407 8.218522,-7.82041628 14.819103,-7.82041628 0,21.98969488 -20.881303,22.65945688 -20.881303,22.65945688 z"
         id="path889"
         sodipodi:nodetypes="czcc" />
    </g>
  </g>
</svg>
