<svg xmlns="http://www.w3.org/2000/svg" width="42.607159mm" height="41.554924mm" viewBox="0 0 42.607159 41.554924"><path d="M21.30355 0C9.53947 0 0 9.53735 0 21.30354c0 9.41211 6.10412 17.39759 14.56867 20.21452 1.06468.19721 1.45556-.46214 1.45556-1.02482 0-.50765-.0198-2.18616-.0289-3.96628-5.92667 1.2887-7.17726-2.51354-7.17726-2.51354-.96909-2.46204-2.36538-3.11714-2.36538-3.11714-1.93287-1.32221.1457-1.29505.1457-1.29505 2.13924.15028 3.26566 2.19569 3.26566 2.19569 1.90006 3.25649 4.98369 2.31492 6.19937 1.77059.19155-1.37654.7433-2.31669 1.35255-2.84868-4.73181-.53834-9.70598-2.36538-9.70598-10.5283 0-2.32551.8322-4.22628 2.19498-5.71818-.22119-.53657-.95038-2.70333.20673-5.63774 0 0 1.78894-.5722 5.85964 2.18405 1.69933-.47202 3.52178-.70873 5.33224-.7172 1.81045.008 3.63431.24518 5.33682.7172 4.06612-2.75625 5.85258-2.18405 5.85258-2.18405 1.15958 2.93441.43039 5.10117.2092 5.63774 1.36595 1.4919 2.19216 3.39267 2.19216 5.71818 0 8.18268-4.98369 9.98396-9.72749 10.51136.76411.66111 1.44497 1.95757 1.44497 3.94512 0 2.85044-.0243 5.14456-.0243 5.84623 0 .56727.38312 1.2312 1.46297 1.02235 8.46032-2.8201 14.55667-10.80276 14.55667-20.21205C42.60716 9.53735 33.06911 0 21.30362 0" fill="#1b1817" fill-rule="evenodd"/></svg>