<?xml version="1.0" encoding="UTF-8" standalone="no"?>
<svg
   xmlns:dc="http://purl.org/dc/elements/1.1/"
   xmlns:cc="http://creativecommons.org/ns#"
   xmlns:rdf="http://www.w3.org/1999/02/22-rdf-syntax-ns#"
   xmlns:svg="http://www.w3.org/2000/svg"
   xmlns="http://www.w3.org/2000/svg"
   width="1024"
   height="1024"
   viewBox="0 0 1024 1024"
   version="1.1"
   id="svg19">
  <metadata
     id="metadata23">
    <rdf:RDF>
      <cc:Work
         rdf:about="">
        <dc:format>image/svg+xml</dc:format>
        <dc:type
           rdf:resource="http://purl.org/dc/dcmitype/StillImage" />
        <dc:title>
    qbittorrent-blue-dark
  </dc:title>
      </cc:Work>
    </rdf:RDF>
  </metadata>
  <title
     id="title2">
    qbittorrent-blue-dark
  </title>
  <defs
     id="defs9">
    <linearGradient
       x1="34.012%"
       y1="0%"
       x2="76.373%"
       y2="76.805%"
       id="a">
      <stop
         stop-color="#72B4F5"
         offset="0%"
         id="stop4"
         style="stop-color:#174e84;stop-opacity:1" />
      <stop
         stop-color="#356EBF"
         offset="100%"
         id="stop6"
         style="stop-color:#1a1a1a;stop-opacity:1" />
    </linearGradient>
  </defs>
  <g
     fill="none"
     fill-rule="evenodd"
     id="g17"
     style="display:inline">
    <circle
       stroke="#daefff"
       stroke-width="32"
       fill="url(#a)"
       cx="512"
       cy="512"
       r="496"
       id="circle11"
       style="display:inline;stroke:#1669bb;stroke-opacity:1" />
    <path
       d="m 712.898,332.399 q 66.657,0 103.38,45.671 37.03,45.364 37.03,128.684 0,83.32 -37.34,129.61 -37.03,45.98 -103.07,45.98 -33.02,0 -60.484,-12.035 -27.156,-12.344 -45.672,-37.649 h -3.703 l -10.8,43.512 H 555.515 V 196 h 51.227 v 116.65 q 0,39.191 -2.469,70.359 h 2.47 q 35.796,-50.61 106.155,-50.61 z m -7.406,42.894 q -52.46,0 -75.605,30.242 -23.145,29.934 -23.145,101.219 0,71.285 23.762,102.145 23.761,30.55 76.222,30.55 47.215,0 70.36,-34.254 23.144,-34.562 23.144,-99.058 0,-66.04 -23.144,-98.442 -23.145,-32.402 -71.594,-32.402 z"
       fill="#ffffff"
       id="path13"
       style="display:inline;fill:#6cadf0;fill-opacity:0.850807" />
    <path
       d="m 317.273,639.45 q 51.227,0 74.68,-27.466 23.453,-27.464 24.996,-92.578 v -11.418 q 0,-70.976 -24.07,-102.144 -24.07,-31.168 -76.223,-31.168 -45.055,0 -69.125,35.18 -23.762,34.87 -23.762,98.75 0,63.879 23.454,97.515 23.761,33.328 70.05,33.328 z m -7.715,42.894 q -65.421,0 -102.144,-45.98 -36.723,-45.981 -36.723,-128.376 0,-83.011 37.032,-129.609 37.03,-46.598 103.07,-46.598 69.433,0 106.773,52.461 h 2.778 l 7.406,-46.289 h 40.426 V 828 H 416.949 V 683.27 q 0,-30.86 3.395,-52.461 h -4.012 q -35.488,51.535 -106.774,51.535 z"
       fill="#c8e8ff"
       id="path15"
       style="display:inline;fill:#6cadf0;fill-opacity:0.693548" />
  </g>
</svg>
